<svg width="163" height="118" viewBox="0 0 163 118" fill="none" xmlns="http://www.w3.org/2000/svg">
<path d="M105.519 97.826C105.468 97.8246 105.419 97.8111 105.375 97.7866C105.33 97.762 105.292 97.7272 105.264 97.685C105.246 97.6526 105.235 97.6169 105.231 97.58C105.227 97.5432 105.23 97.5059 105.24 97.4703C105.251 97.4347 105.268 97.4016 105.292 97.3729C105.315 97.3442 105.344 97.3204 105.377 97.303L106.862 96.497C106.906 96.475 106.953 96.4634 107.002 96.463C107.052 96.462 107.101 96.4752 107.144 96.5011C107.187 96.5269 107.222 96.5643 107.244 96.609C107.262 96.6415 107.273 96.6772 107.277 96.714C107.281 96.7508 107.278 96.788 107.267 96.8235C107.257 96.859 107.239 96.8921 107.216 96.9208C107.193 96.9496 107.164 96.9734 107.131 96.991L105.647 97.798C105.608 97.8204 105.564 97.8302 105.519 97.826ZM108.503 96.199C108.453 96.1977 108.403 96.1842 108.359 96.1597C108.315 96.1351 108.277 96.1002 108.249 96.058C108.231 96.0256 108.22 95.9899 108.216 95.9531C108.212 95.9162 108.215 95.879 108.226 95.8434C108.236 95.8079 108.254 95.7748 108.277 95.7461C108.301 95.7173 108.329 95.6935 108.362 95.676L109.848 94.869C109.891 94.8475 109.939 94.8362 109.987 94.836C110.038 94.8347 110.087 94.8479 110.131 94.8739C110.174 94.9 110.209 94.9378 110.231 94.983C110.266 95.0509 110.274 95.1296 110.253 95.203C110.243 95.2377 110.226 95.27 110.203 95.2977C110.179 95.3254 110.151 95.348 110.118 95.364L108.631 96.171C108.593 96.194 108.548 96.2039 108.503 96.199Z" fill="#EAEAFF"/>
<path d="M68.6868 91.5C68.6505 91.5014 68.6143 91.4954 68.5804 91.4826C68.5464 91.4698 68.5154 91.4504 68.489 91.4254C68.4627 91.4005 68.4415 91.3705 68.4269 91.3373C68.4123 91.3041 68.4044 91.2683 68.4038 91.232C68.4034 91.1575 68.4307 91.0856 68.4804 91.0301C68.5301 90.9747 68.5987 90.9397 68.6728 90.932C69.2228 90.917 69.7848 90.874 70.3418 90.804H70.3688C70.4228 90.8038 70.4757 90.819 70.5214 90.8478C70.567 90.8765 70.6035 90.9178 70.6266 90.9666C70.6497 91.0154 70.6584 91.0697 70.6517 91.1233C70.645 91.1769 70.6232 91.2274 70.5888 91.269C70.5652 91.2976 70.5362 91.3211 70.5034 91.3383C70.4706 91.3555 70.4347 91.3659 70.3978 91.369C69.8078 91.435 69.2478 91.476 68.6868 91.5ZM66.9868 91.486H66.9748C66.4042 91.4584 65.8362 91.3916 65.2748 91.286H65.2608C65.2243 91.2801 65.1894 91.267 65.1581 91.2473C65.1268 91.2276 65.0998 91.2019 65.0787 91.1715C65.0576 91.1412 65.0429 91.1069 65.0353 91.0707C65.0278 91.0346 65.0276 90.9973 65.0348 90.961C65.0453 90.8963 65.0785 90.8374 65.1286 90.7951C65.1786 90.7527 65.2422 90.7297 65.3078 90.73C65.3251 90.7285 65.3425 90.7285 65.3598 90.73H65.3888C65.9255 90.8315 66.469 90.8933 67.0148 90.915C67.0895 90.9211 67.159 90.9556 67.209 91.0114C67.2591 91.0672 67.2858 91.1401 67.2838 91.215C67.2765 91.2889 67.2425 91.3576 67.1882 91.4082C67.1339 91.4589 67.063 91.4879 66.9888 91.49L66.9868 91.486ZM72.0648 91.133C71.9941 91.1327 71.926 91.1062 71.8737 91.0587C71.8214 91.0112 71.7885 90.946 71.7815 90.8757C71.7744 90.8054 71.7936 90.7349 71.8354 90.6779C71.8772 90.6209 71.9386 90.5814 72.0078 90.567C72.4908 90.491 72.9778 90.393 73.4928 90.29L73.6628 90.256C73.6804 90.2544 73.6981 90.2544 73.7158 90.256C73.7806 90.2563 73.8437 90.2776 73.8954 90.3167C73.9472 90.3558 73.9848 90.4107 74.0028 90.473C74.0153 90.5457 74.0006 90.6205 73.9615 90.683C73.9224 90.7455 73.8616 90.7914 73.7908 90.812C73.2908 90.925 72.7558 91.024 72.1078 91.123C72.1024 91.1282 72.0959 91.1322 72.0888 91.1346C72.0817 91.137 72.0742 91.1378 72.0668 91.137L72.0648 91.133ZM63.6548 90.924C63.6302 90.9265 63.6055 90.9216 63.5838 90.91C63.0538 90.778 62.5018 90.61 61.9428 90.415C61.8741 90.3874 61.8176 90.3359 61.7838 90.27C61.767 90.238 61.7573 90.2028 61.7554 90.1667C61.7535 90.1306 61.7595 90.0946 61.7728 90.061C61.7933 90.0074 61.8292 89.961 61.876 89.9277C61.9228 89.8944 61.9784 89.8758 62.0358 89.874C62.0669 89.8739 62.0978 89.8796 62.1268 89.891C62.5938 90.056 63.1018 90.209 63.7268 90.373C63.7635 90.3826 63.798 90.3995 63.828 90.4227C63.8581 90.4459 63.8832 90.4749 63.9018 90.508C63.9186 90.5382 63.9293 90.5714 63.9332 90.6057C63.9372 90.64 63.9343 90.6748 63.9248 90.708C63.912 90.7698 63.878 90.8252 63.8287 90.8647C63.7794 90.9041 63.7179 90.9251 63.6548 90.924ZM75.4658 90.442H75.3948C75.3242 90.4446 75.2553 90.4202 75.2021 90.3738C75.1488 90.3274 75.1152 90.2625 75.1081 90.1923C75.101 90.122 75.1208 90.0517 75.1637 89.9955C75.2065 89.9394 75.2691 89.9017 75.3388 89.89C75.8618 89.763 76.4218 89.605 76.9638 89.452C76.9905 89.4447 77.0181 89.441 77.0458 89.441C77.108 89.4405 77.1687 89.4608 77.2181 89.4987C77.2676 89.5365 77.303 89.5898 77.3188 89.65C77.3394 89.7235 77.3304 89.8021 77.2938 89.869C77.2754 89.9018 77.2506 89.9306 77.2209 89.9536C77.1912 89.9766 77.1571 89.9934 77.1208 90.003C76.5858 90.154 76.0158 90.311 75.4658 90.441V90.442ZM60.4548 89.807C60.4155 89.8058 60.377 89.7963 60.3418 89.779C59.7168 89.492 59.2268 89.245 58.7998 89.001C58.7676 88.9847 58.7392 88.9621 58.7161 88.9344C58.6931 88.9067 58.6759 88.8746 58.6658 88.84C58.6543 88.8038 58.6502 88.7657 58.6538 88.7279C58.6574 88.6901 58.6686 88.6534 58.6868 88.62C58.7229 88.5548 58.7832 88.5064 58.8546 88.4853C58.9261 88.4642 59.003 88.472 59.0688 88.507C59.5978 88.807 60.0838 89.048 60.5548 89.257C60.5886 89.2714 60.6192 89.2925 60.6447 89.3189C60.6702 89.3454 60.6902 89.3768 60.7033 89.4111C60.7165 89.4454 60.7226 89.4821 60.7213 89.5188C60.72 89.5556 60.7113 89.5917 60.6958 89.625C60.6805 89.6772 60.6488 89.7231 60.6054 89.7559C60.562 89.7887 60.5092 89.8066 60.4548 89.807ZM78.6548 89.507C78.5945 89.5064 78.5361 89.4867 78.4878 89.4507C78.4394 89.4148 78.4037 89.3645 78.3858 89.307C78.3738 89.2717 78.369 89.2342 78.3719 89.197C78.3748 89.1598 78.3852 89.1235 78.4025 89.0904C78.4198 89.0573 78.4436 89.0281 78.4725 89.0045C78.5015 88.9808 78.5349 88.9633 78.5708 88.953L78.7888 88.883C79.2408 88.737 79.7078 88.583 80.1828 88.416C80.2123 88.4041 80.2439 88.398 80.2758 88.398C80.3334 88.398 80.3895 88.4162 80.4362 88.45C80.4828 88.4837 80.5177 88.5313 80.5358 88.586C80.558 88.6553 80.5529 88.7305 80.5214 88.7961C80.49 88.8617 80.4347 88.9129 80.3668 88.939C79.7838 89.139 79.2368 89.32 78.7398 89.477C78.7142 89.4941 78.6852 89.5054 78.6548 89.51V89.507ZM81.8658 88.39C81.8077 88.3897 81.751 88.372 81.7031 88.3392C81.6552 88.3064 81.6181 88.26 81.5968 88.206C81.5831 88.1715 81.5765 88.1346 81.5773 88.0975C81.5782 88.0604 81.5865 88.0238 81.6018 87.99C81.6176 87.955 81.6403 87.9235 81.6687 87.8975C81.6971 87.8716 81.7304 87.8517 81.7668 87.839L81.8228 87.818C82.3228 87.63 82.8328 87.436 83.3508 87.231C83.3826 87.2182 83.4165 87.2114 83.4508 87.211C83.4975 87.2104 83.5437 87.2214 83.585 87.2432C83.6264 87.2649 83.6617 87.2967 83.6876 87.3355C83.7136 87.3744 83.7294 87.4192 83.7336 87.4657C83.7378 87.5122 83.7303 87.5591 83.7118 87.602C83.6977 87.636 83.6771 87.6669 83.651 87.6928C83.6249 87.7187 83.5939 87.7392 83.5598 87.753C83.1718 87.906 82.7798 88.053 82.4018 88.196L81.9618 88.362C81.9361 88.3835 81.9032 88.3945 81.8698 88.393L81.8658 88.39ZM57.5118 88.138C57.4503 88.1385 57.3905 88.1185 57.3418 88.081C56.8418 87.714 56.3928 87.363 55.9838 87.006C55.928 86.956 55.8939 86.8864 55.8887 86.8117C55.8835 86.737 55.9075 86.6633 55.9558 86.606C55.9827 86.576 56.0157 86.5521 56.0526 86.5359C56.0895 86.5197 56.1295 86.5115 56.1698 86.512C56.2364 86.5113 56.3011 86.5348 56.3518 86.578C56.7663 86.9451 57.2002 87.2896 57.6518 87.61C57.6812 87.6301 57.7063 87.6558 57.7257 87.6857C57.7451 87.7156 57.7584 87.749 57.7648 87.784C57.7799 87.8608 57.7645 87.9405 57.7218 88.006C57.7027 88.0455 57.6728 88.0788 57.6357 88.1021C57.5986 88.1255 57.5556 88.1379 57.5118 88.138ZM149.539 87.982C149.207 87.9818 148.876 87.9533 148.549 87.897C148.512 87.8911 148.477 87.878 148.446 87.8583C148.415 87.8386 148.388 87.8129 148.366 87.7826C148.345 87.7523 148.33 87.718 148.323 87.6818C148.315 87.6457 148.315 87.6083 148.322 87.572C148.333 87.5075 148.366 87.4488 148.416 87.4066C148.466 87.3643 148.529 87.3411 148.595 87.341C148.612 87.3395 148.629 87.3395 148.647 87.341C148.946 87.39 149.249 87.4148 149.553 87.415C149.789 87.4151 150.025 87.4001 150.259 87.37H150.289C150.358 87.3668 150.425 87.3901 150.477 87.4351C150.53 87.4801 150.563 87.5434 150.57 87.612C150.578 87.6871 150.557 87.7625 150.512 87.823C150.49 87.8514 150.463 87.8749 150.431 87.8921C150.4 87.9093 150.365 87.9199 150.33 87.923H150.302C150.049 87.9555 149.794 87.9752 149.539 87.982ZM151.929 87.501C151.862 87.5017 151.797 87.4791 151.746 87.4373C151.694 87.3954 151.658 87.3368 151.645 87.2716C151.631 87.2063 151.641 87.1385 151.672 87.0796C151.704 87.0208 151.754 86.9746 151.816 86.949C152.33 86.7477 152.823 86.4965 153.288 86.199C153.332 86.17 153.384 86.1546 153.437 86.155C153.485 86.1549 153.533 86.1666 153.576 86.1891C153.619 86.2116 153.656 86.2441 153.684 86.284C153.704 86.3154 153.718 86.3505 153.724 86.3873C153.73 86.424 153.729 86.4617 153.721 86.498C153.704 86.5719 153.661 86.6369 153.599 86.68C153.105 86.991 152.585 87.2561 152.043 87.472L151.991 87.487C151.971 87.4943 151.95 87.4987 151.929 87.5V87.501ZM146.993 87.36C146.952 87.3577 146.913 87.3493 146.875 87.335H146.865C146.341 87.0684 145.848 86.7459 145.394 86.373C145.364 86.35 145.339 86.3211 145.321 86.288C145.303 86.255 145.291 86.2186 145.288 86.181C145.285 86.1451 145.289 86.1089 145.3 86.0746C145.311 86.0402 145.328 86.0084 145.352 85.981C145.378 85.9475 145.411 85.9205 145.449 85.9019C145.487 85.8834 145.529 85.8738 145.572 85.874C145.636 85.8737 145.699 85.8968 145.748 85.939C146.164 86.2881 146.62 86.5871 147.106 86.83C147.139 86.8466 147.169 86.8697 147.194 86.8979C147.218 86.9261 147.237 86.959 147.249 86.9945C147.261 87.03 147.265 87.0676 147.263 87.1049C147.26 87.1422 147.25 87.1786 147.233 87.212C147.211 87.257 147.177 87.2947 147.134 87.3208C147.092 87.3469 147.043 87.3601 146.993 87.359V87.36ZM85.0228 87.148C84.9686 87.1474 84.9158 87.1311 84.8707 87.1012C84.8256 87.0712 84.7902 87.0287 84.7688 86.979C84.7406 86.9098 84.7406 86.8323 84.7688 86.763C84.7826 86.7288 84.8033 86.6977 84.8294 86.6716C84.8555 86.6455 84.8866 86.6249 84.9208 86.611C85.3858 86.423 85.8798 86.211 86.4768 85.947C86.5127 85.9325 86.551 85.925 86.5898 85.925C86.6437 85.9235 86.6969 85.9382 86.7424 85.9673C86.7878 85.9963 86.8235 86.0384 86.8448 86.088C86.8713 86.1572 86.8713 86.2338 86.8448 86.303C86.8327 86.3372 86.8136 86.3684 86.7886 86.3946C86.7636 86.4208 86.7333 86.4414 86.6998 86.455C86.2178 86.664 85.6718 86.9 85.1298 87.12C85.0987 87.1421 85.0606 87.1517 85.0228 87.147V87.148ZM54.9658 85.889C54.9252 85.8891 54.8852 85.8801 54.8485 85.8628C54.8119 85.8455 54.7795 85.8203 54.7538 85.789C54.3678 85.3604 54.0044 84.9122 53.6648 84.446C53.6415 84.4169 53.6245 84.3834 53.6146 84.3474C53.6048 84.3115 53.6025 84.2739 53.6078 84.237C53.6199 84.1624 53.6604 84.0955 53.7208 84.05C53.7688 84.0116 53.8283 83.9905 53.8898 83.99C53.934 83.9906 53.9774 84.0014 54.0168 84.0215C54.0562 84.0416 54.0904 84.0706 54.1168 84.106C54.4421 84.554 54.7917 84.984 55.1638 85.394C55.215 85.4535 55.2408 85.5307 55.2358 85.609C55.2341 85.6434 55.2257 85.6771 55.2109 85.7081C55.1961 85.7392 55.1754 85.767 55.1498 85.79C55.1306 85.8213 55.1034 85.8469 55.0711 85.8643C55.0388 85.8817 55.0024 85.8902 54.9658 85.889ZM88.1358 85.789C88.0807 85.7913 88.0264 85.7761 87.9806 85.7456C87.9347 85.715 87.8998 85.6707 87.8808 85.619C87.8642 85.5855 87.8548 85.5488 87.8533 85.5115C87.8517 85.4741 87.858 85.4368 87.8718 85.402C87.8997 85.3306 87.9532 85.2722 88.0218 85.238L88.5078 85.01C88.8558 84.847 89.2078 84.68 89.5498 84.516C89.5832 84.4991 89.6197 84.489 89.6571 84.4862C89.6944 84.4835 89.732 84.4882 89.7675 84.5002C89.8031 84.5121 89.8359 84.5309 89.8641 84.5556C89.8923 84.5803 89.9153 84.6104 89.9318 84.644C89.9487 84.6774 89.9589 84.7138 89.9617 84.7511C89.9645 84.7885 89.9599 84.826 89.948 84.8615C89.9362 84.8971 89.9175 84.9299 89.8929 84.9581C89.8683 84.9864 89.8383 85.0094 89.8048 85.026L89.3988 85.219C89.0238 85.397 88.6368 85.581 88.2628 85.748C88.2255 85.7742 88.1813 85.7888 88.1358 85.79V85.789ZM154.815 85.747C154.774 85.7468 154.734 85.7377 154.698 85.7205C154.661 85.7032 154.629 85.6781 154.603 85.647C154.579 85.6171 154.56 85.5828 154.55 85.5458C154.539 85.5089 154.535 85.4702 154.54 85.432C154.545 85.3963 154.556 85.362 154.575 85.3309C154.593 85.2998 154.617 85.2727 154.646 85.251C154.993 84.963 155.446 84.577 155.891 84.134C155.917 84.1077 155.948 84.0869 155.983 84.0727C156.017 84.0585 156.054 84.0512 156.091 84.0512C156.128 84.0512 156.165 84.0585 156.199 84.0727C156.233 84.0869 156.264 84.1077 156.291 84.134C156.317 84.1603 156.338 84.1915 156.352 84.2258C156.366 84.2601 156.374 84.2969 156.374 84.334C156.374 84.3712 156.366 84.4079 156.352 84.4423C156.338 84.4766 156.317 84.5077 156.291 84.534C155.885 84.939 155.468 85.319 155.017 85.694C154.953 85.7237 154.885 85.742 154.815 85.748V85.747ZM144.362 85.247C144.321 85.2488 144.28 85.2406 144.243 85.2232C144.207 85.2057 144.174 85.1796 144.15 85.147C143.857 84.81 143.576 84.458 143.316 84.1L143.203 83.945L143.089 83.789C143.047 83.7261 143.03 83.6493 143.044 83.5747C143.057 83.5001 143.099 83.4336 143.16 83.389C143.208 83.3567 143.265 83.3397 143.323 83.34C143.368 83.3393 143.413 83.3498 143.454 83.3705C143.495 83.3913 143.53 83.4216 143.556 83.459C143.617 83.545 143.691 83.649 143.782 83.77C144.024 84.1235 144.294 84.4578 144.588 84.77C144.636 84.8274 144.66 84.9011 144.654 84.9757C144.649 85.0503 144.615 85.1199 144.56 85.17C144.504 85.2179 144.435 85.2467 144.362 85.252V85.247ZM91.2048 84.318C91.1523 84.3166 91.1012 84.3014 91.0565 84.274C91.0117 84.2467 90.9749 84.208 90.9498 84.162C90.9328 84.1286 90.9226 84.0922 90.9198 84.0549C90.917 84.0175 90.9217 83.98 90.9335 83.9445C90.9453 83.909 90.9641 83.8761 90.9886 83.8479C91.0132 83.8197 91.0432 83.7966 91.0768 83.78C91.5768 83.524 92.0908 83.266 92.5908 83.016C92.6305 82.9962 92.6743 82.9859 92.7188 82.986C92.783 82.9861 92.8453 83.0078 92.8956 83.0477C92.9459 83.0876 92.9812 83.1433 92.9959 83.2058C93.0106 83.2683 93.0038 83.3339 92.9765 83.392C92.9493 83.4501 92.9032 83.4973 92.8458 83.526C92.5148 83.691 92.1818 83.864 91.8598 84.026L91.3318 84.299C91.3106 84.2996 91.2895 84.302 91.2688 84.306C91.2478 84.3118 91.2264 84.3158 91.2048 84.318ZM157.234 83.356C157.166 83.354 157.101 83.3294 157.05 83.286C156.995 83.2362 156.961 83.167 156.957 83.093C156.951 83.0204 156.975 82.9486 157.022 82.893C157.435 82.393 157.768 81.978 158.069 81.577C158.095 81.5417 158.129 81.5128 158.169 81.4927C158.208 81.4726 158.252 81.4618 158.296 81.461C158.357 81.4613 158.416 81.4821 158.464 81.52C158.495 81.5432 158.521 81.5723 158.54 81.6056C158.56 81.6389 158.573 81.6757 158.578 81.714C158.582 81.7495 158.579 81.7855 158.569 81.8198C158.559 81.8541 158.542 81.8861 158.52 81.914C158.21 82.341 157.848 82.793 157.444 83.258C157.388 83.3155 157.313 83.3504 157.234 83.356ZM52.9718 83.156C52.9227 83.1559 52.8746 83.1427 52.8323 83.118C52.79 83.0932 52.7549 83.0577 52.7308 83.015C52.4411 82.5179 52.182 82.0036 51.9548 81.475C51.9279 81.4055 51.9279 81.3285 51.9548 81.259C51.9668 81.2249 51.986 81.1937 52.011 81.1675C52.036 81.1413 52.0662 81.1207 52.0998 81.107C52.1354 81.0929 52.1734 81.0858 52.2118 81.086C52.266 81.0843 52.3195 81.0991 52.3652 81.1284C52.4108 81.1576 52.4466 81.2001 52.4678 81.25C52.6788 81.726 52.9248 82.212 53.2178 82.735C53.2527 82.7995 53.2617 82.8748 53.2432 82.9458C53.2246 83.0167 53.1798 83.0779 53.1178 83.117C53.074 83.1444 53.0234 83.1586 52.9718 83.158V83.156ZM94.2328 82.747C94.1878 82.7464 94.1435 82.7355 94.1035 82.715C94.0634 82.6946 94.0286 82.6652 94.0017 82.6291C93.9748 82.5931 93.9566 82.5513 93.9485 82.507C93.9403 82.4628 93.9425 82.4173 93.9548 82.374C93.9646 82.3385 93.9818 82.3055 94.0052 82.2771C94.0287 82.2486 94.0578 82.2255 94.0908 82.209L94.8328 81.809L94.8898 81.778L95.5748 81.406C95.6182 81.384 95.6661 81.3723 95.7148 81.372C95.7646 81.371 95.8138 81.3842 95.8565 81.41C95.8991 81.4359 95.9336 81.4733 95.9558 81.518C95.9907 81.5852 95.9989 81.663 95.9788 81.736C95.969 81.7715 95.9518 81.8046 95.9284 81.833C95.9049 81.8615 95.8758 81.8846 95.8428 81.901C95.6768 81.991 95.5098 82.083 95.3428 82.175C95.0188 82.354 94.6838 82.538 94.3558 82.707C94.3395 82.7227 94.3199 82.7346 94.2985 82.7419C94.277 82.7491 94.2542 82.7516 94.2318 82.749L94.2328 82.747ZM142.382 82.506C142.334 82.5072 142.287 82.4962 142.245 82.4739C142.203 82.4517 142.168 82.419 142.142 82.379C141.833 81.894 141.509 81.379 141.251 80.908C141.216 80.8411 141.208 80.7637 141.228 80.691C141.238 80.6557 141.255 80.6229 141.278 80.5946C141.302 80.5664 141.331 80.5434 141.364 80.527C141.407 80.5051 141.454 80.4934 141.503 80.493C141.553 80.4921 141.602 80.5055 141.645 80.5315C141.688 80.5575 141.722 80.5951 141.745 80.64C142.038 81.161 142.321 81.633 142.608 82.083C142.628 82.1136 142.641 82.1478 142.648 82.1837C142.654 82.2196 142.654 82.2564 142.646 82.292C142.63 82.368 142.586 82.4351 142.522 82.479C142.476 82.4954 142.429 82.5052 142.381 82.508L142.382 82.506ZM97.1888 81.106C97.1398 81.1061 97.0917 81.0931 97.0495 81.0683C97.0073 81.0435 96.9725 81.0078 96.9488 80.965C96.9129 80.9007 96.9033 80.8251 96.9219 80.7539C96.9405 80.6827 96.986 80.6215 97.0488 80.583C97.5398 80.294 98.0488 80.005 98.5198 79.734C98.5629 79.708 98.6124 79.6942 98.6628 79.694C98.7243 79.6938 98.7843 79.7139 98.8332 79.7513C98.8822 79.7886 98.9174 79.8411 98.9334 79.9006C98.9494 79.9601 98.9452 80.0232 98.9216 80.08C98.898 80.1369 98.8562 80.1844 98.8028 80.215C98.4848 80.406 98.1628 80.593 97.8518 80.775L97.3328 81.075C97.2871 81.0943 97.2383 81.1051 97.1888 81.107V81.106ZM51.5988 80.06C51.5385 80.0597 51.4799 80.0401 51.4315 80.0041C51.3831 79.9682 51.3475 79.9177 51.3298 79.86C51.1448 79.3175 50.9892 78.7653 50.8638 78.206C50.855 78.1698 50.8536 78.1321 50.8596 78.0953C50.8656 78.0585 50.8788 78.0232 50.8985 77.9916C50.9183 77.9599 50.9441 77.9325 50.9745 77.911C51.005 77.8894 51.0394 77.8741 51.0758 77.866C51.0952 77.8626 51.115 77.8609 51.1348 77.861C51.1998 77.8582 51.2638 77.8786 51.3153 77.9185C51.3667 77.9584 51.4023 78.0153 51.4158 78.079C51.5318 78.579 51.6798 79.111 51.8688 79.692C51.8907 79.768 51.8817 79.8496 51.8438 79.919C51.8271 79.9496 51.8044 79.9765 51.7771 79.9982C51.7497 80.0198 51.7184 80.0357 51.6848 80.045C51.6577 80.0568 51.6282 80.0619 51.5988 80.06ZM140.74 79.537C140.685 79.5364 140.632 79.52 140.587 79.4898C140.542 79.4597 140.506 79.417 140.485 79.367C140.254 78.832 140.07 78.2783 139.933 77.712C139.917 77.6391 139.931 77.563 139.97 77.4997C140.01 77.4365 140.072 77.3911 140.145 77.373C140.164 77.3697 140.183 77.368 140.203 77.368C140.267 77.3673 140.33 77.3884 140.381 77.428C140.432 77.4676 140.468 77.5233 140.484 77.586C140.61 78.1199 140.785 78.6408 141.008 79.142C141.023 79.1779 141.031 79.2165 141.031 79.2555C141.031 79.2945 141.023 79.3331 141.008 79.369C140.993 79.4015 140.972 79.4307 140.946 79.4548C140.919 79.4789 140.888 79.4973 140.855 79.509C140.819 79.5269 140.78 79.5368 140.741 79.538L140.74 79.537ZM100.116 79.381C100.067 79.3824 100.018 79.37 99.9755 79.345C99.933 79.3201 99.8985 79.2837 99.8758 79.24C99.8558 79.2093 99.8423 79.1748 99.8361 79.1387C99.8299 79.1026 99.8312 79.0656 99.8398 79.03C99.8486 78.9915 99.8651 78.9552 99.8883 78.9233C99.9115 78.8913 99.9409 78.8644 99.9748 78.844L100.696 78.398L101.417 77.953C101.461 77.9234 101.513 77.9077 101.567 77.908C101.615 77.9081 101.663 77.9199 101.706 77.9423C101.748 77.9648 101.785 77.9973 101.813 78.037C101.833 78.0684 101.847 78.1035 101.853 78.1403C101.859 78.177 101.858 78.2147 101.85 78.251C101.833 78.3249 101.79 78.3899 101.728 78.433C101.564 78.533 101.399 78.633 101.235 78.74C100.922 78.94 100.601 79.14 100.285 79.324C100.235 79.3597 100.177 79.3799 100.116 79.382V79.381ZM103.001 77.57C102.953 77.5712 102.906 77.5602 102.864 77.5379C102.822 77.5157 102.787 77.483 102.761 77.443C102.722 77.378 102.709 77.3005 102.725 77.2263C102.74 77.1521 102.784 77.0866 102.846 77.043C103.301 76.749 103.746 76.45 104.183 76.161L104.261 76.109C104.309 76.0773 104.365 76.0606 104.423 76.061C104.469 76.06 104.514 76.0704 104.555 76.0912C104.596 76.1119 104.631 76.1424 104.657 76.18C104.698 76.2433 104.714 76.3197 104.701 76.394C104.695 76.4306 104.682 76.4657 104.662 76.497C104.642 76.5283 104.616 76.5552 104.586 76.576C104.342 76.739 104.086 76.905 103.846 77.065C103.62 77.214 103.394 77.365 103.172 77.51C103.122 77.5455 103.063 77.5666 103.002 77.571L103.001 77.57ZM50.8768 76.765C50.8711 76.76 50.8644 76.7562 50.8572 76.754C50.8499 76.7517 50.8423 76.7511 50.8348 76.752C50.7668 76.7522 50.7009 76.7281 50.6491 76.6841C50.5972 76.6402 50.5627 76.5791 50.5518 76.512C50.466 75.9446 50.4093 75.3732 50.3818 74.8C50.3789 74.7622 50.384 74.7242 50.3965 74.6884C50.4091 74.6526 50.4289 74.6198 50.4548 74.592C50.48 74.5639 50.5108 74.5415 50.5453 74.5262C50.5797 74.5108 50.617 74.5029 50.6548 74.503H50.6748C50.7463 74.5035 50.8149 74.5319 50.8658 74.5821C50.9168 74.6323 50.9462 74.7005 50.9478 74.772C50.975 75.3313 51.0317 75.8887 51.1178 76.442C51.1287 76.517 51.1094 76.5933 51.0643 76.6542C51.0191 76.7151 50.9517 76.7557 50.8768 76.767V76.765ZM140.047 76.242H140.033C139.956 76.2349 139.885 76.1992 139.833 76.142C139.808 76.1155 139.788 76.084 139.776 76.0495C139.764 76.0151 139.76 75.9784 139.763 75.942C139.793 75.3476 139.912 74.761 140.117 74.202C140.137 74.1473 140.174 74.1 140.222 74.0665C140.27 74.0329 140.327 74.0147 140.386 74.014C140.432 74.0141 140.477 74.0253 140.518 74.0467C140.559 74.0681 140.594 74.099 140.621 74.1369C140.647 74.1748 140.664 74.2185 140.67 74.2643C140.676 74.3101 140.671 74.3567 140.655 74.4C140.467 74.9039 140.357 75.4332 140.329 75.97C140.326 76.043 140.296 76.1122 140.243 76.1629C140.191 76.2137 140.121 76.2421 140.048 76.242H140.047ZM105.816 75.676C105.77 75.677 105.725 75.6657 105.685 75.6434C105.645 75.621 105.612 75.5885 105.589 75.549C105.548 75.4857 105.532 75.4093 105.545 75.335C105.55 75.2984 105.563 75.2633 105.583 75.232C105.603 75.2006 105.629 75.1738 105.66 75.153L105.695 75.129C106.142 74.817 106.605 74.494 107.046 74.177C107.093 74.1458 107.148 74.1291 107.205 74.129C107.251 74.1295 107.296 74.1405 107.337 74.1614C107.378 74.1822 107.414 74.2122 107.442 74.249C107.484 74.3117 107.501 74.3885 107.488 74.4632C107.475 74.5378 107.433 74.6045 107.372 74.649L107.177 74.789C106.788 75.069 106.386 75.358 105.985 75.625C105.936 75.6608 105.877 75.6788 105.817 75.676H105.816ZM108.575 73.7C108.531 73.6989 108.488 73.6882 108.449 73.6687C108.41 73.6492 108.375 73.6213 108.348 73.587C108.325 73.558 108.308 73.5246 108.298 73.4888C108.289 73.453 108.286 73.4157 108.292 73.379C108.304 73.3043 108.345 73.2372 108.405 73.191C108.851 72.857 109.311 72.512 109.749 72.173C109.797 72.1346 109.856 72.1135 109.918 72.113C109.962 72.1136 110.005 72.1244 110.045 72.1445C110.084 72.1646 110.118 72.1936 110.145 72.229C110.168 72.2586 110.186 72.2926 110.196 72.3292C110.206 72.3657 110.208 72.4039 110.203 72.4414C110.198 72.4788 110.185 72.5148 110.165 72.5471C110.145 72.5794 110.119 72.6073 110.088 72.629C109.702 72.929 109.258 73.266 108.73 73.662L108.7 73.673C108.66 73.6894 108.618 73.6985 108.575 73.7ZM50.6238 73.37C50.5865 73.3701 50.5496 73.3629 50.5152 73.3488C50.4807 73.3346 50.4494 73.3138 50.423 73.2875C50.3966 73.2612 50.3757 73.2299 50.3614 73.1955C50.3471 73.1611 50.3398 73.1243 50.3398 73.087C50.3538 72.531 50.3688 71.956 50.4258 71.375C50.4304 71.3042 50.4624 71.238 50.5151 71.1904C50.5677 71.1428 50.6368 71.1175 50.7078 71.12H50.7368C50.7733 71.1233 50.8089 71.1338 50.8413 71.151C50.8738 71.1681 50.9025 71.1916 50.9258 71.22C50.9502 71.249 50.9686 71.2827 50.98 71.3189C50.9913 71.3551 50.9953 71.3932 50.9918 71.431C50.9508 71.983 50.9218 72.545 50.9068 73.1C50.9034 73.1728 50.8721 73.2415 50.8194 73.2918C50.7667 73.3421 50.6966 73.3701 50.6238 73.37ZM141.124 73.06C141.073 73.0592 141.024 73.0447 140.982 73.018C140.948 72.9983 140.918 72.972 140.895 72.9405C140.872 72.909 140.855 72.8731 140.846 72.835C140.838 72.8009 140.837 72.7656 140.844 72.7312C140.85 72.6968 140.863 72.6641 140.883 72.635C141.148 72.184 141.454 71.712 141.817 71.192C141.843 71.1545 141.878 71.124 141.918 71.1033C141.959 71.0825 142.004 71.0721 142.05 71.073C142.108 71.0728 142.165 71.0899 142.213 71.122C142.242 71.1421 142.267 71.1678 142.287 71.1977C142.306 71.2276 142.319 71.261 142.326 71.296C142.341 71.3728 142.326 71.4525 142.283 71.518L142.255 71.56C141.888 72.103 141.599 72.532 141.378 72.919C141.352 72.9634 141.315 72.9999 141.27 73.0246C141.225 73.0493 141.174 73.0612 141.123 73.059L141.124 73.06ZM111.264 71.617C111.22 71.6159 111.177 71.6052 111.138 71.5857C111.099 71.5662 111.064 71.5383 111.037 71.504C111.012 71.4755 110.994 71.4422 110.982 71.4062C110.971 71.3703 110.967 71.3324 110.971 71.2949C110.975 71.2575 110.987 71.2212 111.005 71.1884C111.024 71.1555 111.049 71.1268 111.079 71.104C111.597 70.687 112.027 70.335 112.395 70.029C112.447 69.9879 112.511 69.965 112.577 69.964C112.618 69.9641 112.659 69.9737 112.696 69.9923C112.734 70.0109 112.766 70.0378 112.791 70.071C112.814 70.0984 112.832 70.1302 112.843 70.1646C112.854 70.1989 112.858 70.2351 112.855 70.271C112.851 70.3089 112.84 70.3457 112.822 70.3791C112.804 70.4125 112.779 70.4417 112.749 70.465C112.355 70.792 111.913 71.153 111.433 71.54C111.411 71.5638 111.385 71.5829 111.356 71.5961C111.326 71.6094 111.295 71.6165 111.263 71.617H111.264ZM143.02 70.259C142.958 70.2595 142.898 70.2395 142.85 70.202C142.82 70.1822 142.795 70.1566 142.775 70.1269C142.756 70.0972 142.742 70.064 142.736 70.029C142.72 69.952 142.735 69.872 142.778 69.806C143.068 69.392 143.395 68.923 143.74 68.42C143.766 68.3823 143.8 68.3515 143.841 68.3306C143.882 68.3096 143.927 68.2991 143.973 68.3C144.031 68.2995 144.087 68.3162 144.136 68.348C144.165 68.3679 144.191 68.3934 144.21 68.4231C144.23 68.4528 144.243 68.4861 144.25 68.521C144.266 68.598 144.25 68.6781 144.208 68.744C143.967 69.106 143.729 69.444 143.499 69.766C143.407 69.896 143.318 70.0223 143.232 70.145C143.211 70.1832 143.18 70.2144 143.142 70.2347C143.104 70.255 143.061 70.2635 143.018 70.259H143.02ZM50.9058 69.989H50.8638C50.7905 69.9745 50.7252 69.9331 50.6809 69.873C50.6365 69.8129 50.6161 69.7383 50.6238 69.664C50.7108 69.094 50.8108 68.528 50.9238 67.98C50.9369 67.9141 50.9727 67.8549 51.0249 67.8127C51.0772 67.7705 51.1426 67.748 51.2098 67.749C51.2274 67.7475 51.2451 67.7475 51.2628 67.749C51.2986 67.7556 51.3329 67.7692 51.3634 67.7891C51.394 67.809 51.4203 67.8348 51.4408 67.865C51.4858 67.9304 51.503 68.0109 51.4888 68.089C51.3768 68.638 51.2768 69.195 51.1888 69.744C51.1764 69.8109 51.1416 69.8716 51.0902 69.9161C51.0387 69.9606 50.9737 69.9863 50.9058 69.989ZM113.879 69.437C113.838 69.4388 113.797 69.4306 113.76 69.4132C113.724 69.3957 113.691 69.3696 113.667 69.337C113.62 69.2815 113.596 69.2097 113.601 69.137C113.606 69.0628 113.639 68.9935 113.695 68.944C114.106 68.588 114.53 68.207 114.954 67.813C115.009 67.7651 115.08 67.7391 115.154 67.74C115.191 67.7394 115.229 67.7469 115.263 67.7619C115.298 67.7769 115.329 67.7991 115.354 67.827C115.405 67.8865 115.431 67.9637 115.426 68.042C115.424 68.0764 115.416 68.1101 115.401 68.1411C115.386 68.1722 115.365 68.2 115.34 68.223C114.872 68.658 114.456 69.023 114.067 69.354C114.017 69.4052 113.95 69.4353 113.879 69.438V69.437ZM144.927 67.443C144.872 67.4422 144.818 67.4278 144.771 67.401C144.707 67.3591 144.662 67.2935 144.646 67.2185C144.63 67.1436 144.644 67.0654 144.686 67.001C144.964 66.572 145.238 66.114 145.549 65.558C145.578 65.5114 145.619 65.474 145.669 65.4504C145.718 65.4268 145.773 65.418 145.828 65.425C145.882 65.4319 145.933 65.4544 145.975 65.4897C146.017 65.525 146.048 65.5716 146.064 65.624C146.074 65.6604 146.076 65.6984 146.07 65.7357C146.064 65.7729 146.05 65.8085 146.03 65.84C145.783 66.273 145.485 66.786 145.153 67.297C145.135 67.3419 145.104 67.3801 145.063 67.4063C145.023 67.4325 144.975 67.4453 144.927 67.443ZM116.383 67.143C116.345 67.1429 116.309 67.1353 116.274 67.1207C116.24 67.1061 116.209 67.0848 116.183 67.058C116.157 67.0319 116.136 67.0007 116.123 66.9662C116.109 66.9318 116.103 66.8949 116.105 66.858C116.105 66.8201 116.114 66.7828 116.13 66.7484C116.146 66.7139 116.168 66.6832 116.197 66.658C116.575 66.293 117.004 65.879 117.397 65.47C117.45 65.417 117.522 65.3872 117.597 65.3872C117.672 65.3872 117.744 65.417 117.797 65.47C117.85 65.5231 117.88 65.595 117.88 65.67C117.88 65.745 117.85 65.817 117.797 65.87C117.352 66.33 116.954 66.724 116.58 67.07C116.524 67.1158 116.455 67.1424 116.383 67.146V67.143ZM51.5828 66.662C51.5586 66.6644 51.5342 66.6595 51.5128 66.648C51.476 66.6385 51.4416 66.6216 51.4115 66.5984C51.3814 66.5752 51.3563 66.5461 51.3378 66.513C51.3209 66.4828 51.3102 66.4496 51.3063 66.4153C51.3023 66.381 51.3052 66.3462 51.3148 66.313C51.4508 65.797 51.6058 65.286 51.7958 64.672C51.8122 64.6133 51.8478 64.5617 51.8969 64.5255C51.946 64.4892 52.0058 64.4704 52.0668 64.472C52.0949 64.472 52.1228 64.476 52.1498 64.484C52.1834 64.4935 52.2148 64.5096 52.2422 64.5314C52.2695 64.5532 52.2921 64.5803 52.3088 64.611C52.3464 64.6806 52.355 64.7621 52.3328 64.838L52.3128 64.901C52.1528 65.41 51.9878 65.934 51.8518 66.45C51.8387 66.5111 51.8051 66.5659 51.7565 66.6053C51.7079 66.6446 51.6473 66.666 51.5848 66.666L51.5828 66.662ZM118.755 64.714C118.682 64.7124 118.612 64.6875 118.555 64.643C118.526 64.6179 118.504 64.5871 118.488 64.5527C118.472 64.5182 118.463 64.4809 118.463 64.443C118.461 64.4061 118.467 64.3692 118.481 64.3348C118.494 64.3004 118.515 64.2691 118.541 64.243C118.949 63.79 119.314 63.383 119.658 62.984C119.685 62.954 119.718 62.9301 119.755 62.9139C119.792 62.8977 119.832 62.8895 119.873 62.89C119.939 62.8893 120.003 62.9128 120.054 62.956C120.109 63.0056 120.143 63.0749 120.148 63.149C120.153 63.2216 120.13 63.2934 120.083 63.349C119.74 63.761 119.383 64.159 118.952 64.636C118.897 64.6844 118.828 64.712 118.755 64.714ZM146.611 64.5C146.57 64.4976 146.529 64.4888 146.491 64.474H146.484C146.45 64.4575 146.42 64.4345 146.395 64.4063C146.371 64.3781 146.352 64.3452 146.34 64.3097C146.328 64.2741 146.324 64.2365 146.327 64.1992C146.329 64.1618 146.34 64.1254 146.357 64.092C146.42 63.964 146.495 63.815 146.583 63.654C146.75 63.321 146.921 62.954 147.083 62.579C147.105 62.5268 147.142 62.4824 147.189 62.4512C147.237 62.4201 147.292 62.4037 147.349 62.404C147.383 62.4043 147.417 62.4111 147.449 62.424C147.483 62.438 147.514 62.4586 147.54 62.4847C147.566 62.5108 147.587 62.5419 147.601 62.576C147.629 62.6449 147.629 62.7221 147.601 62.791C147.43 63.211 147.259 63.591 147.092 63.909C147.049 64.009 147 64.095 146.953 64.182C146.923 64.238 146.893 64.293 146.866 64.347C146.84 64.3925 146.803 64.4305 146.759 64.4573C146.714 64.4842 146.663 64.4989 146.611 64.5ZM52.6308 63.44C52.5968 63.4421 52.5628 63.4374 52.5308 63.426C52.4602 63.3988 52.403 63.3452 52.3714 63.2764C52.3398 63.2076 52.3364 63.1293 52.3618 63.058C52.5908 62.452 52.7988 61.934 52.9978 61.474C53.0182 61.4242 53.0529 61.3815 53.0976 61.3514C53.1423 61.3213 53.1949 61.3052 53.2488 61.305C53.2898 61.305 53.3302 61.3145 53.3668 61.333C53.4012 61.3468 53.4324 61.3676 53.4584 61.3942C53.4844 61.4207 53.5046 61.4523 53.5178 61.487C53.5314 61.5213 53.5376 61.5581 53.536 61.595C53.5345 61.6318 53.5252 61.668 53.5088 61.701C53.3018 62.179 53.0938 62.688 52.8728 63.257C52.859 63.3104 52.8276 63.3575 52.7837 63.3907C52.7397 63.4239 52.6858 63.4413 52.6308 63.44ZM120.955 62.125C120.893 62.1282 120.832 62.1078 120.785 62.068C120.725 62.0222 120.685 61.9545 120.674 61.8797C120.664 61.8049 120.683 61.7288 120.728 61.668C121.072 61.228 121.414 60.758 121.718 60.31C121.744 60.2725 121.779 60.242 121.82 60.2213C121.861 60.2005 121.906 60.1901 121.952 60.191C122.004 60.1901 122.055 60.2037 122.1 60.2303C122.145 60.2569 122.181 60.2955 122.206 60.3416C122.23 60.3878 122.241 60.4398 122.237 60.4918C122.233 60.5438 122.215 60.5937 122.185 60.636C121.84 61.136 121.507 61.59 121.166 62.022C121.14 62.0538 121.108 62.0795 121.072 62.0974C121.035 62.1152 120.995 62.1246 120.955 62.125ZM147.929 61.375C147.9 61.3775 147.87 61.3727 147.844 61.361C147.81 61.3518 147.778 61.3358 147.751 61.314C147.723 61.2921 147.7 61.2649 147.684 61.234C147.665 61.1997 147.653 61.1619 147.649 61.1229C147.645 61.084 147.648 61.0445 147.66 61.007C147.847 60.428 147.995 59.9 148.113 59.394C148.128 59.3316 148.164 59.2761 148.215 59.2367C148.266 59.1973 148.328 59.1763 148.393 59.177C148.413 59.1772 148.432 59.1792 148.452 59.183C148.524 59.2006 148.587 59.246 148.627 59.3093C148.666 59.3727 148.68 59.449 148.664 59.522C148.524 60.081 148.364 60.638 148.198 61.177C148.179 61.2348 148.143 61.2852 148.094 61.321C148.045 61.3568 147.986 61.3761 147.926 61.376L147.929 61.375ZM53.9748 60.329C53.9312 60.3262 53.8883 60.3164 53.8478 60.3C53.8142 60.2834 53.7842 60.2604 53.7596 60.2321C53.7351 60.2039 53.7163 60.1711 53.7045 60.1355C53.6927 60.1 53.688 60.0625 53.6908 60.0252C53.6936 59.9878 53.7038 59.9514 53.7208 59.918C53.8088 59.732 53.9038 59.545 53.9958 59.365L54.1168 59.126L54.1368 59.087C54.2558 58.862 54.3778 58.63 54.5128 58.387C54.5298 58.3539 54.5536 58.3247 54.5827 58.3013C54.6117 58.278 54.6454 58.2611 54.6814 58.2517C54.7175 58.2422 54.7551 58.2405 54.7919 58.2466C54.8286 58.2527 54.8637 58.2665 54.8948 58.287C54.9275 58.3033 54.9563 58.3265 54.9793 58.355C55.0023 58.3835 55.0188 58.4166 55.0278 58.452C55.0378 58.4885 55.04 58.5268 55.0341 58.5642C55.0283 58.6016 55.0145 58.6373 54.9938 58.669C54.8638 58.89 54.7348 59.129 54.6118 59.376C54.5528 59.494 54.4898 59.615 54.4278 59.737C54.3548 59.879 54.2828 60.018 54.2158 60.154C54.1964 60.2031 54.1635 60.2457 54.1208 60.2767C54.0781 60.3077 54.0274 60.3258 53.9748 60.329ZM122.875 59.329C122.825 59.3281 122.776 59.3136 122.734 59.287C122.67 59.2491 122.624 59.1877 122.605 59.116C122.587 59.0443 122.597 58.9682 122.634 58.904C122.922 58.4272 123.186 57.9363 123.426 57.433C123.441 57.3977 123.464 57.3659 123.492 57.3395C123.52 57.3132 123.554 57.2929 123.59 57.2798C123.626 57.2667 123.665 57.2611 123.703 57.2634C123.742 57.2657 123.78 57.2758 123.814 57.2931C123.849 57.3104 123.879 57.3345 123.904 57.364C123.929 57.3935 123.948 57.4278 123.959 57.4647C123.97 57.5017 123.974 57.5405 123.97 57.5789C123.966 57.6173 123.954 57.6544 123.935 57.688C123.663 58.248 123.395 58.743 123.114 59.201C123.086 59.2378 123.05 59.2679 123.009 59.2892C122.967 59.3104 122.922 59.3223 122.876 59.324L122.875 59.329ZM148.733 58.08H148.691C148.654 58.0738 148.62 58.0603 148.588 58.0405C148.557 58.0206 148.53 57.9948 148.509 57.9645C148.488 57.9342 148.473 57.8999 148.465 57.8638C148.458 57.8277 148.457 57.7904 148.464 57.754C148.555 57.249 148.629 56.703 148.691 56.085C148.698 56.0147 148.731 55.9495 148.784 55.9023C148.837 55.855 148.905 55.8289 148.976 55.829H149.003C149.078 55.8369 149.146 55.8739 149.194 55.9321C149.242 55.9904 149.265 56.0651 149.258 56.14C149.192 56.801 149.117 57.357 149.031 57.84C149.013 57.9062 148.974 57.9651 148.921 58.0082C148.867 58.0512 148.801 58.0764 148.733 58.08ZM55.6548 57.387C55.5998 57.3881 55.5457 57.3736 55.4988 57.345C55.4665 57.3232 55.439 57.295 55.418 57.2621C55.3971 57.2293 55.383 57.1925 55.3768 57.154C55.3706 57.1182 55.372 57.0815 55.3808 57.0462C55.3896 57.0109 55.4056 56.9778 55.4278 56.949C55.7278 56.509 56.0688 56.042 56.4278 55.563C56.454 55.5286 56.4879 55.5007 56.5268 55.4816C56.5657 55.4625 56.6085 55.4527 56.6518 55.453C56.7131 55.4533 56.7729 55.4717 56.8238 55.506C56.8839 55.5519 56.9235 55.6195 56.9342 55.6943C56.9448 55.7692 56.9257 55.8452 56.8808 55.906C56.5808 56.291 56.3018 56.684 56.0318 57.065L55.8908 57.265C55.8634 57.3021 55.8279 57.3324 55.787 57.3536C55.7461 57.3747 55.7008 57.3862 55.6548 57.387ZM124.343 56.269C124.309 56.2716 124.275 56.2668 124.243 56.255C124.172 56.2289 124.114 56.1756 124.082 56.1067C124.05 56.0379 124.047 55.9592 124.073 55.888C124.224 55.4621 124.352 55.0281 124.455 54.588C124.469 54.539 124.48 54.488 124.491 54.44C124.502 54.392 124.512 54.34 124.527 54.291C124.542 54.2283 124.578 54.1726 124.629 54.133C124.68 54.0934 124.743 54.0723 124.808 54.073C124.827 54.073 124.847 54.0747 124.866 54.078C124.938 54.0961 125.001 54.1415 125.04 54.2047C125.08 54.268 125.093 54.3441 125.078 54.417C125.064 54.466 125.053 54.517 125.043 54.565C125.033 54.613 125.022 54.665 125.007 54.714C124.899 55.1797 124.762 55.6383 124.597 56.087C124.58 56.1401 124.547 56.1865 124.502 56.2192C124.457 56.252 124.402 56.2694 124.347 56.269H124.343ZM149.055 54.7C149.017 54.7 148.981 54.6927 148.946 54.6784C148.912 54.6641 148.88 54.6432 148.854 54.6168C148.828 54.5905 148.807 54.5592 148.792 54.5247C148.778 54.4902 148.771 54.4533 148.771 54.416V53.95C148.771 53.562 148.758 53.182 148.745 52.814V52.748C148.742 52.714 148.745 52.6796 148.756 52.647C148.766 52.6144 148.783 52.5841 148.805 52.558C148.857 52.4962 148.932 52.4577 149.013 52.451H149.037C149.107 52.4541 149.175 52.4833 149.225 52.533C149.275 52.5827 149.306 52.6493 149.31 52.72C149.339 53.128 149.353 53.543 149.353 53.951V54.432C149.345 54.5056 149.31 54.5736 149.255 54.6231C149.2 54.6725 149.129 54.6999 149.055 54.7ZM57.7238 54.685C57.6562 54.6828 57.5913 54.6577 57.5398 54.614C57.484 54.5641 57.4499 54.4944 57.4447 54.4197C57.4395 54.345 57.4635 54.2713 57.5118 54.214C57.8528 53.804 58.2118 53.406 58.6428 52.927C58.6686 52.8979 58.7003 52.8746 58.7358 52.8587C58.7713 52.8429 58.8099 52.8348 58.8488 52.835C58.884 52.8349 58.9189 52.8417 58.9515 52.8551C58.9841 52.8685 59.0138 52.8882 59.0388 52.913C59.0671 52.9382 59.0899 52.9689 59.1057 53.0034C59.1216 53.0378 59.1301 53.0751 59.1308 53.113C59.1324 53.1499 59.1263 53.1868 59.1128 53.2212C59.0994 53.2557 59.079 53.2869 59.0528 53.313C58.6528 53.741 58.2818 54.17 57.9348 54.572C57.913 54.6081 57.8819 54.6376 57.8448 54.6575C57.8077 54.6774 57.7659 54.6869 57.7238 54.685ZM125.224 53C125.199 53.0037 125.174 52.9988 125.153 52.986C125.116 52.9763 125.082 52.9594 125.052 52.9362C125.022 52.9131 124.997 52.8842 124.978 52.8512C124.96 52.8182 124.948 52.7818 124.943 52.7442C124.939 52.7065 124.942 52.6684 124.953 52.632C125.09 52.132 125.253 51.598 125.453 50.991C125.472 50.9327 125.509 50.8819 125.559 50.846C125.609 50.8101 125.669 50.7908 125.731 50.791C125.756 50.791 125.781 50.7947 125.806 50.802C125.875 50.8271 125.933 50.8774 125.967 50.943C126.001 51.0086 126.009 51.0847 125.99 51.156C125.822 51.656 125.651 52.218 125.49 52.769C125.48 52.8328 125.448 52.8911 125.399 52.9334C125.35 52.9757 125.288 52.9993 125.224 53ZM60.0148 52.181C59.9774 52.1809 59.9405 52.1733 59.9062 52.1587C59.8718 52.1441 59.8408 52.1228 59.8148 52.096C59.7875 52.0703 59.7658 52.0393 59.751 52.0049C59.7362 51.9705 59.7285 51.9335 59.7285 51.896C59.7285 51.8586 59.7362 51.8215 59.751 51.7871C59.7658 51.7527 59.7875 51.7217 59.8148 51.696C60.0688 51.433 60.3298 51.175 60.6058 50.902C60.7391 50.7687 60.8761 50.6327 61.0168 50.494C61.0699 50.4408 61.1416 50.4104 61.2168 50.409C61.2531 50.4086 61.2892 50.416 61.3225 50.4306C61.3558 50.4453 61.3855 50.4669 61.4098 50.494C61.4377 50.5217 61.4596 50.5547 61.4743 50.5912C61.4889 50.6277 61.4959 50.6667 61.4948 50.706C61.4941 50.7409 61.4862 50.7753 61.4716 50.8069C61.457 50.8386 61.4359 50.8669 61.4098 50.89C61.2638 51.0367 61.1181 51.1814 60.9728 51.324C60.7058 51.588 60.4538 51.837 60.2078 52.092C60.183 52.1188 60.1533 52.1405 60.1201 52.1558C60.087 52.171 60.0512 52.1796 60.0148 52.181ZM148.874 51.332C148.874 51.319 148.86 51.319 148.846 51.319C148.778 51.3188 148.712 51.2946 148.66 51.2507C148.609 51.2068 148.574 51.146 148.563 51.079C148.487 50.569 148.383 50.052 148.238 49.453C148.228 49.4159 148.225 49.3772 148.231 49.3392C148.236 49.3012 148.25 49.2647 148.27 49.232C148.288 49.2019 148.312 49.1759 148.34 49.1554C148.369 49.1349 148.401 49.1205 148.436 49.113C148.46 49.1065 148.484 49.1031 148.509 49.103C148.57 49.1023 148.63 49.1227 148.679 49.1607C148.727 49.1987 148.761 49.2521 148.775 49.312C148.919 49.8719 149.033 50.4395 149.114 51.012C149.12 51.0466 149.119 51.0821 149.112 51.1164C149.104 51.1508 149.09 51.1832 149.07 51.212C149.046 51.2449 149.017 51.2728 148.982 51.2941C148.948 51.3154 148.91 51.3296 148.87 51.336L148.874 51.332ZM62.4488 49.805C62.3697 49.8044 62.2939 49.7737 62.2368 49.719C62.2105 49.693 62.19 49.6618 62.1765 49.6273C62.1631 49.5928 62.157 49.556 62.1588 49.519C62.1594 49.4811 62.168 49.4438 62.1838 49.4094C62.1996 49.375 62.2224 49.3442 62.2508 49.319L62.4768 49.109C62.8088 48.801 63.1518 48.482 63.5088 48.159C63.5643 48.1111 63.6354 48.0851 63.7088 48.086C63.7464 48.0854 63.7837 48.0929 63.8182 48.1079C63.8527 48.1229 63.8836 48.1451 63.9088 48.173C63.9598 48.2279 63.9871 48.3008 63.9847 48.3757C63.9823 48.4506 63.9503 48.5216 63.8958 48.573C63.6618 48.791 63.4258 49.007 63.1958 49.215C63.0078 49.387 62.8251 49.5537 62.6478 49.715C62.5932 49.7662 62.5232 49.7978 62.4488 49.805ZM126.299 49.776C126.265 49.7785 126.231 49.7738 126.199 49.762C126.165 49.7484 126.135 49.7281 126.109 49.7026C126.083 49.677 126.063 49.6465 126.049 49.613C126.02 49.5432 126.02 49.4648 126.049 49.395C126.249 48.87 126.476 48.375 126.695 47.895L126.728 47.823C126.743 47.7877 126.766 47.7559 126.794 47.7295C126.822 47.7032 126.856 47.6829 126.892 47.6698C126.928 47.6567 126.967 47.6511 127.005 47.6534C127.044 47.6557 127.082 47.6658 127.116 47.6831C127.151 47.7004 127.181 47.7245 127.206 47.754C127.231 47.7835 127.25 47.8178 127.261 47.8547C127.272 47.8917 127.276 47.9305 127.272 47.9689C127.268 48.0073 127.256 48.0444 127.237 48.078C127.007 48.566 126.784 49.084 126.572 49.62C126.544 49.6679 126.504 49.7075 126.456 49.7349C126.408 49.7623 126.353 49.7765 126.298 49.776H126.299ZM147.999 48.036C147.941 48.0357 147.884 48.018 147.836 47.9852C147.788 47.9524 147.751 47.906 147.73 47.852C147.535 47.3338 147.298 46.8322 147.023 46.352C147.005 46.3196 146.994 46.2839 146.99 46.2471C146.986 46.2102 146.989 46.173 146.999 46.1374C147.01 46.1019 147.027 46.0688 147.051 46.0401C147.074 46.0113 147.103 45.9875 147.136 45.97C147.179 45.9485 147.227 45.9372 147.275 45.937C147.325 45.936 147.374 45.9493 147.417 45.9753C147.46 46.0014 147.495 46.0391 147.517 46.084C147.796 46.5907 148.042 47.1152 148.253 47.654C148.281 47.7229 148.281 47.8001 148.253 47.869C148.239 47.9032 148.218 47.9342 148.192 47.9603C148.166 47.9864 148.135 48.007 148.101 48.021C148.068 48.0352 148.032 48.0407 147.997 48.037L147.999 48.036ZM64.9548 47.513C64.914 47.5148 64.8734 47.5066 64.8364 47.4892C64.7995 47.4717 64.7674 47.4456 64.7428 47.413C64.717 47.3837 64.6975 47.3494 64.6855 47.3122C64.6735 47.2751 64.6691 47.2359 64.6728 47.197C64.6761 47.1617 64.6867 47.1275 64.7039 47.0965C64.7211 47.0655 64.7445 47.0385 64.7728 47.017C64.9281 46.8837 65.0834 46.748 65.2388 46.61C65.5058 46.375 65.7818 46.133 66.0598 45.9C66.1105 45.8568 66.1751 45.8333 66.2418 45.834C66.2985 45.8344 66.3537 45.8519 66.4003 45.8843C66.4468 45.9166 66.4825 45.9623 66.5027 46.0153C66.5228 46.0683 66.5264 46.1262 66.513 46.1813C66.4997 46.2364 66.4699 46.2861 66.4278 46.324C66.0278 46.673 65.5708 47.068 65.1548 47.442C65.0973 47.4864 65.0273 47.5112 64.9548 47.513ZM127.772 46.721C127.722 46.7204 127.673 46.7058 127.631 46.679C127.597 46.6595 127.567 46.6333 127.544 46.6021C127.521 46.5708 127.504 46.535 127.495 46.497C127.487 46.4629 127.486 46.4276 127.492 46.3932C127.499 46.3588 127.512 46.326 127.532 46.297C127.796 45.845 128.097 45.386 128.48 44.854C128.506 44.8186 128.54 44.7896 128.58 44.7695C128.619 44.7494 128.663 44.7386 128.707 44.738C128.768 44.7386 128.828 44.7597 128.876 44.798C128.936 44.8442 128.976 44.9113 128.989 44.986C128.994 45.0227 128.992 45.06 128.982 45.0958C128.973 45.1316 128.956 45.165 128.933 45.194C128.614 45.629 128.304 46.094 128.013 46.58C127.989 46.6232 127.953 46.6591 127.911 46.6839C127.868 46.7087 127.819 46.7215 127.77 46.721H127.772ZM67.5258 45.293C67.485 45.2945 67.4445 45.2862 67.4076 45.2688C67.3707 45.2514 67.3385 45.2254 67.3138 45.193C67.2668 45.1374 67.2435 45.0656 67.2488 44.993C67.2537 44.9189 67.2875 44.8496 67.3428 44.8C67.7618 44.437 68.2018 44.067 68.6278 43.711L68.6448 43.697C68.6951 43.6538 68.7594 43.6303 68.8258 43.631C68.8662 43.6305 68.9063 43.6387 68.9434 43.6549C68.9805 43.6711 69.0137 43.695 69.0408 43.725C69.0884 43.7826 69.112 43.8563 69.1066 43.9308C69.1012 44.0054 69.0672 44.0749 69.0118 44.125C68.7958 44.306 68.5788 44.491 68.3698 44.669L68.3618 44.676C68.1508 44.856 67.9318 45.042 67.7108 45.228C67.6585 45.2705 67.5931 45.2935 67.5258 45.293ZM146.356 45.093C146.312 45.0919 146.269 45.0812 146.23 45.0617C146.191 45.0422 146.156 45.0143 146.129 44.98C145.794 44.5415 145.42 44.1345 145.012 43.764C144.983 43.7388 144.961 43.708 144.945 43.6736C144.929 43.6392 144.921 43.6019 144.92 43.564C144.918 43.5271 144.924 43.4902 144.938 43.4557C144.951 43.4213 144.971 43.39 144.998 43.364C145.023 43.3347 145.055 43.3112 145.091 43.2952C145.126 43.2792 145.165 43.2709 145.204 43.271C145.239 43.2708 145.274 43.2776 145.307 43.2909C145.339 43.3043 145.369 43.3241 145.394 43.349C145.821 43.7434 146.214 44.174 146.568 44.636C146.591 44.6655 146.609 44.6995 146.619 44.736C146.629 44.7725 146.632 44.8107 146.626 44.8481C146.621 44.8856 146.608 44.9216 146.589 44.9539C146.569 44.9863 146.543 45.0142 146.512 45.036C146.466 45.0708 146.412 45.0913 146.355 45.095L146.356 45.093ZM129.806 44.004C129.749 44.0053 129.694 43.9894 129.647 43.9586C129.599 43.9278 129.563 43.8835 129.541 43.8314C129.519 43.7793 129.514 43.7219 129.526 43.6667C129.537 43.6115 129.565 43.5611 129.606 43.522C130.009 43.1067 130.443 42.7235 130.906 42.376C130.954 42.338 131.013 42.3172 131.075 42.317C131.119 42.3177 131.162 42.3285 131.202 42.3486C131.241 42.3687 131.275 42.3976 131.302 42.433C131.325 42.4626 131.343 42.4966 131.353 42.5332C131.363 42.5697 131.365 42.6079 131.36 42.6454C131.355 42.6828 131.342 42.7188 131.322 42.7511C131.302 42.7834 131.276 42.8113 131.245 42.833C130.809 43.1652 130.397 43.5292 130.015 43.922C129.957 43.973 129.883 44.0027 129.806 44.006V44.004ZM70.1288 43.1C70.088 43.1016 70.0474 43.0933 70.0105 43.0759C69.9736 43.0585 69.9415 43.0325 69.9168 43C69.8936 42.9725 69.8762 42.9406 69.8656 42.9063C69.8549 42.8719 69.8513 42.8358 69.8548 42.8C69.8582 42.7623 69.8694 42.7257 69.8877 42.6925C69.9059 42.6593 69.9308 42.6302 69.9608 42.607C70.1201 42.4737 70.2794 42.3404 70.4388 42.207H70.4438C70.7138 41.983 70.9938 41.752 71.2618 41.52C71.3109 41.4776 71.3738 41.4545 71.4388 41.455C71.481 41.4549 71.5227 41.4645 71.5607 41.483C71.5987 41.5016 71.6319 41.5286 71.6578 41.562C71.6813 41.5894 71.699 41.6212 71.71 41.6555C71.721 41.6899 71.725 41.7261 71.7218 41.762C71.7183 41.7997 71.7071 41.8363 71.6888 41.8695C71.6706 41.9028 71.6457 41.9318 71.6158 41.955C71.4664 42.0804 71.3171 42.2044 71.1678 42.327H71.1618C70.8818 42.558 70.5928 42.798 70.3148 43.039C70.258 43.0728 70.1945 43.0937 70.1288 43.1ZM143.867 42.8C143.812 42.7992 143.758 42.7848 143.711 42.758C143.247 42.4598 142.76 42.1996 142.254 41.98C142.219 41.9659 142.188 41.9448 142.161 41.918C142.135 41.8911 142.115 41.8591 142.102 41.824C142.089 41.79 142.083 41.7537 142.085 41.7174C142.087 41.681 142.096 41.6455 142.113 41.613C142.133 41.563 142.168 41.5201 142.212 41.4898C142.257 41.4595 142.31 41.4432 142.364 41.443C142.404 41.4431 142.444 41.4527 142.481 41.471C143.01 41.7051 143.521 41.9795 144.009 42.292C144.073 42.3339 144.118 42.3995 144.134 42.4745C144.15 42.5494 144.135 42.6276 144.094 42.692C144.067 42.7268 144.033 42.7547 143.993 42.7735C143.954 42.7923 143.91 42.8014 143.867 42.8ZM132.508 41.979C132.455 41.9776 132.404 41.9624 132.359 41.935C132.315 41.9077 132.278 41.869 132.253 41.823C132.236 41.7896 132.225 41.7531 132.223 41.7157C132.22 41.6783 132.225 41.6407 132.237 41.6051C132.248 41.5695 132.267 41.5367 132.292 41.5085C132.317 41.4804 132.347 41.4574 132.381 41.441C132.897 41.1745 133.436 40.9566 133.993 40.79C134.019 40.7828 134.046 40.7791 134.074 40.779C134.134 40.7782 134.193 40.7967 134.242 40.8318C134.291 40.8669 134.327 40.9167 134.346 40.974C134.367 41.0454 134.359 41.1221 134.325 41.188C134.291 41.254 134.232 41.3042 134.162 41.328C133.637 41.4887 133.126 41.6921 132.635 41.936C132.618 41.9525 132.598 41.9652 132.576 41.9732C132.554 41.9811 132.531 41.9841 132.508 41.982V41.979ZM140.769 41.442C140.744 41.4464 140.719 41.4414 140.698 41.428C140.283 41.3123 139.863 41.2178 139.439 41.145C139.312 41.117 139.197 41.102 139.085 41.088C139.011 41.0789 138.943 41.0412 138.897 40.983C138.85 40.9248 138.829 40.8508 138.836 40.7766C138.843 40.7025 138.88 40.6343 138.937 40.5865C138.994 40.5387 139.068 40.5152 139.142 40.521H139.17C139.237 40.529 139.304 40.54 139.37 40.551C139.436 40.562 139.485 40.571 139.538 40.577C139.988 40.662 140.43 40.762 140.854 40.877C140.89 40.8868 140.925 40.9038 140.954 40.927C140.984 40.9502 141.009 40.9791 141.028 41.0121C141.047 41.045 141.058 41.0814 141.063 41.119C141.067 41.1565 141.064 41.1946 141.054 41.231C141.035 41.2925 140.998 41.3464 140.946 41.3849C140.895 41.4234 140.833 41.4445 140.769 41.445V41.442ZM135.733 41.004C135.662 41.0055 135.593 40.98 135.541 40.9326C135.488 40.8852 135.456 40.8196 135.45 40.749C135.442 40.6748 135.462 40.6003 135.506 40.54C135.528 40.5114 135.555 40.4877 135.587 40.4704C135.619 40.4532 135.654 40.4428 135.69 40.44C136.166 40.3805 136.646 40.3511 137.127 40.352C137.227 40.352 137.327 40.352 137.427 40.352C137.465 40.3516 137.503 40.3593 137.538 40.3747C137.573 40.3901 137.604 40.4127 137.629 40.4411C137.655 40.4695 137.674 40.503 137.685 40.5394C137.697 40.5757 137.7 40.6142 137.696 40.652C137.694 40.7238 137.665 40.7922 137.614 40.8426C137.562 40.893 137.494 40.9215 137.422 40.922H137.399C137.299 40.922 137.199 40.922 137.099 40.922C136.645 40.9226 136.191 40.9473 135.74 40.996C135.755 41 135.755 41 135.755 41C135.755 41 135.744 41.007 135.733 41.007V41.004ZM72.7328 40.919C72.692 40.9206 72.6514 40.9123 72.6145 40.8949C72.5776 40.8775 72.5455 40.8515 72.5208 40.819C72.4973 40.7916 72.4796 40.7598 72.4686 40.7255C72.4576 40.6911 72.4536 40.6549 72.4568 40.619C72.4601 40.5811 72.4713 40.5443 72.4895 40.5109C72.5077 40.4776 72.5327 40.4483 72.5628 40.425L73.1048 39.971L73.8638 39.336C73.9142 39.2929 73.9784 39.2695 74.0448 39.27C74.0853 39.2696 74.1255 39.2778 74.1626 39.2942C74.1996 39.3106 74.2328 39.3348 74.2598 39.365C74.3068 39.4206 74.3301 39.4924 74.3248 39.565C74.32 39.639 74.2867 39.7082 74.2318 39.758L73.9318 40.01H73.9258L72.9318 40.842C72.8741 40.8872 72.8047 40.9149 72.7318 40.922L72.7328 40.919ZM75.3328 38.74C75.292 38.7418 75.2514 38.7336 75.2144 38.7162C75.1775 38.6987 75.1454 38.6726 75.1208 38.64C75.0725 38.5828 75.0485 38.509 75.0537 38.4343C75.0589 38.3597 75.093 38.29 75.1488 38.24C75.6078 37.855 76.0488 37.468 76.4358 37.14C76.4862 37.0969 76.5504 37.0735 76.6168 37.074C76.6573 37.0736 76.6975 37.0818 76.7346 37.0982C76.7716 37.1146 76.8048 37.1388 76.8318 37.169C76.8791 37.2244 76.9028 37.2963 76.8978 37.369C76.8934 37.4439 76.8596 37.514 76.8038 37.564C76.4038 37.91 75.9848 38.264 75.5788 38.603L75.5028 38.667C75.4813 38.6904 75.4554 38.7091 75.4265 38.7222C75.3977 38.7352 75.3664 38.7423 75.3348 38.743L75.3328 38.74ZM77.9068 36.52C77.866 36.5214 77.8256 36.513 77.7887 36.4956C77.7518 36.4782 77.7196 36.4523 77.6948 36.42C77.6467 36.3627 77.6228 36.2888 77.6282 36.2141C77.6336 36.1395 77.6679 36.0698 77.7238 36.02C78.1448 35.651 78.5338 35.303 78.9098 34.966L78.9968 34.888C79.0494 34.8421 79.1169 34.8169 79.1868 34.817C79.2265 34.8165 79.2659 34.8252 79.3016 34.8426C79.3374 34.86 79.3686 34.8854 79.3928 34.917C79.4185 34.9464 79.438 34.9807 79.45 35.0178C79.4621 35.0549 79.4664 35.0941 79.4628 35.133C79.4595 35.1683 79.4489 35.2025 79.4317 35.2335C79.4144 35.2645 79.391 35.2916 79.3628 35.313C79.0168 35.634 78.6488 35.955 78.2628 36.295L78.0918 36.444C78.0433 36.493 77.9777 36.5213 77.9088 36.523L77.9068 36.52ZM80.4388 34.242C80.3599 34.2413 80.2843 34.211 80.2268 34.157C80.2006 34.1309 80.1802 34.0996 80.1668 34.0652C80.1534 34.0308 80.1472 33.9939 80.1488 33.957C80.1494 33.9191 80.158 33.8818 80.1738 33.8474C80.1896 33.813 80.2124 33.7822 80.2408 33.757C80.4408 33.567 80.6408 33.378 80.8408 33.194C81.0598 32.986 81.2668 32.794 81.4748 32.594C81.5009 32.5678 81.5322 32.5472 81.5665 32.5335C81.6009 32.5197 81.6377 32.5131 81.6748 32.514C81.7494 32.5134 81.8212 32.5421 81.8748 32.594C81.9266 32.6477 81.9555 32.7194 81.9555 32.794C81.9555 32.8686 81.9266 32.9403 81.8748 32.994C81.4998 33.356 81.0748 33.767 80.6298 34.168C80.6072 34.1956 80.578 34.2171 80.545 34.2305C80.512 34.2439 80.4762 34.2489 80.4408 34.245L80.4388 34.242ZM82.8718 31.88C82.8344 31.8799 82.7975 31.8723 82.7632 31.8577C82.7288 31.8431 82.6978 31.8218 82.6718 31.795C82.6445 31.7693 82.6228 31.7383 82.608 31.7039C82.5932 31.6695 82.5855 31.6325 82.5855 31.595C82.5855 31.5576 82.5932 31.5205 82.608 31.4861C82.6228 31.4517 82.6445 31.4207 82.6718 31.395C83.0518 31.015 83.4418 30.601 83.8318 30.165C83.8576 30.1356 83.8895 30.1121 83.9252 30.0961C83.9609 30.08 83.9996 30.0718 84.0388 30.072C84.0739 30.0718 84.1087 30.0786 84.1411 30.092C84.1736 30.1054 84.203 30.1251 84.2278 30.15C84.2561 30.1752 84.2789 30.2059 84.2947 30.2404C84.3106 30.2748 84.3191 30.3121 84.3198 30.35C84.3215 30.387 84.3154 30.4238 84.302 30.4583C84.2886 30.4928 84.2681 30.524 84.2418 30.55C83.8698 30.95 83.4738 31.375 83.0678 31.795C83.0444 31.8239 83.0146 31.8469 82.9807 31.8622C82.9469 31.8774 82.9099 31.8846 82.8728 31.883L82.8718 31.88ZM85.1778 29.38C85.1035 29.3783 85.0327 29.3482 84.9799 29.296C84.9271 29.2437 84.8963 29.1733 84.8938 29.099C84.8922 29.0647 84.8979 29.0305 84.9102 28.9985C84.9226 28.9664 84.9415 28.9373 84.9658 28.913C85.3958 28.403 85.7288 27.985 86.0128 27.597C86.0391 27.5617 86.0731 27.5329 86.1123 27.5128C86.1515 27.4926 86.1947 27.4818 86.2388 27.481C86.3006 27.4814 86.3604 27.5026 86.4088 27.541C86.4397 27.5642 86.4656 27.5933 86.4852 27.6266C86.5048 27.6599 86.5175 27.6967 86.5228 27.735C86.5306 27.8067 86.5098 27.8786 86.4648 27.935C86.1758 28.325 85.8348 28.752 85.3898 29.279C85.3642 29.3104 85.3321 29.3357 85.2956 29.3532C85.2591 29.3706 85.2192 29.3798 85.1788 29.38H85.1778ZM87.2148 26.664C87.1604 26.6632 87.1071 26.6488 87.0598 26.622C87.0278 26.6014 87.0003 26.5747 86.9786 26.5435C86.957 26.5122 86.9418 26.477 86.9338 26.4399C86.9258 26.4027 86.9252 26.3643 86.9321 26.327C86.9389 26.2896 86.9531 26.2539 86.9738 26.222C87.3128 25.683 87.5858 25.211 87.8088 24.779C87.8254 24.7454 87.8484 24.7155 87.8766 24.6909C87.9048 24.6663 87.9376 24.6475 87.9731 24.6356C88.0086 24.6237 88.0461 24.6189 88.0835 24.6216C88.1208 24.6242 88.1573 24.6342 88.1908 24.651C88.2243 24.6678 88.2542 24.691 88.2787 24.7194C88.3032 24.7477 88.3219 24.7806 88.3337 24.8162C88.3455 24.8517 88.3502 24.8893 88.3474 24.9267C88.3447 24.9641 88.3346 25.0005 88.3178 25.034C88.0978 25.448 87.8018 25.992 87.4558 26.519C87.4319 26.562 87.3972 26.5979 87.355 26.6232C87.3129 26.6484 87.2649 26.6622 87.2158 26.663L87.2148 26.664ZM88.7428 23.652C88.7089 23.6537 88.6749 23.649 88.6428 23.638C88.572 23.611 88.5146 23.5574 88.4828 23.4887C88.451 23.4199 88.4474 23.3414 88.4728 23.27C88.6594 22.7562 88.7967 22.2258 88.8828 21.686C88.8952 21.6163 88.9325 21.5535 88.9876 21.509C89.0427 21.4645 89.112 21.4415 89.1828 21.444H89.2128C89.2861 21.4586 89.3513 21.4999 89.3957 21.5601C89.4401 21.6202 89.4604 21.6947 89.4528 21.769C89.3643 22.3439 89.2172 22.9082 89.0138 23.453C88.9954 23.5103 88.9594 23.5603 88.9109 23.5958C88.8624 23.6314 88.8039 23.6507 88.7438 23.651L88.7428 23.652ZM58.1338 21.218C58.0618 21.2137 57.9941 21.1821 57.9446 21.1296C57.8951 21.0771 57.8676 21.0077 57.8676 20.9355C57.8676 20.8634 57.8951 20.7939 57.9446 20.7414C57.9941 20.6889 58.0618 20.6573 58.1338 20.653C58.6878 20.6389 59.2404 20.5914 59.7888 20.511C59.8044 20.5096 59.8201 20.5096 59.8358 20.511C59.9035 20.5128 59.9684 20.5383 60.0192 20.5831C60.07 20.6279 60.1035 20.6891 60.1138 20.756C60.1201 20.7906 60.1194 20.8261 60.1119 20.8604C60.1043 20.8948 60.09 20.9273 60.0698 20.956C60.0464 20.9891 60.0167 21.0172 59.9823 21.0386C59.948 21.0601 59.9097 21.0745 59.8698 21.081C59.294 21.1583 58.7145 21.204 58.1338 21.218ZM56.4338 21.105H56.3938C55.8117 21.0122 55.2416 20.8556 54.6938 20.638C54.6329 20.6131 54.5827 20.5678 54.5517 20.5098C54.5208 20.4519 54.511 20.3849 54.5242 20.3205C54.5373 20.2561 54.5726 20.1983 54.6238 20.1572C54.675 20.116 54.7391 20.094 54.8048 20.095C54.839 20.0951 54.8729 20.1015 54.9048 20.114C55.4112 20.3152 55.9374 20.4624 56.4748 20.553C56.5481 20.5676 56.6133 20.6089 56.6577 20.6691C56.7021 20.7292 56.7224 20.8037 56.7148 20.878C56.7011 20.9418 56.6662 20.9991 56.6156 21.0403C56.5651 21.0816 56.502 21.1044 56.4368 21.105H56.4338ZM61.4838 20.737C61.4338 20.7363 61.3849 20.7223 61.3421 20.6966C61.2993 20.6708 61.2641 20.6342 61.24 20.5904C61.2159 20.5466 61.2039 20.4972 61.205 20.4473C61.2062 20.3973 61.2206 20.3486 61.2468 20.306C61.2668 20.2745 61.2931 20.2475 61.3241 20.2266C61.3551 20.2058 61.39 20.1916 61.4268 20.185C61.9128 20.064 62.4778 19.919 63.0398 19.732C63.0662 19.7248 63.0934 19.7211 63.1208 19.721C63.181 19.7202 63.2399 19.7387 63.2888 19.7738C63.3378 19.8089 63.3742 19.8587 63.3928 19.916C63.4139 19.9875 63.4065 20.0644 63.372 20.1305C63.3374 20.1966 63.2785 20.2466 63.2078 20.27C62.6078 20.46 62.0368 20.606 61.5538 20.723C61.5328 20.7327 61.5099 20.7375 61.4868 20.737H61.4838ZM89.2508 20.327H89.2248C89.1548 20.3258 89.0875 20.2994 89.0355 20.2525C88.9835 20.2056 88.9502 20.1415 88.9418 20.072C88.8949 19.5306 88.7758 18.9979 88.5878 18.488C88.5752 18.4551 88.5693 18.4201 88.5703 18.3849C88.5713 18.3497 88.5793 18.3151 88.5938 18.283C88.609 18.2464 88.6313 18.2131 88.6594 18.1851C88.6876 18.1571 88.721 18.135 88.7578 18.12C88.7884 18.1069 88.8214 18.1001 88.8548 18.1C88.9139 18.1009 88.9714 18.1192 89.0202 18.1526C89.0689 18.1861 89.1067 18.2332 89.1288 18.288C89.3273 18.8449 89.4556 19.4244 89.5108 20.013C89.5146 20.0505 89.5111 20.0883 89.5003 20.1243C89.4895 20.1604 89.4717 20.194 89.4479 20.2232C89.4242 20.2523 89.3949 20.2765 89.3617 20.2943C89.3286 20.3122 89.2922 20.3233 89.2548 20.327H89.2508ZM53.3388 19.817C53.2775 19.8183 53.2177 19.7981 53.1698 19.76C52.8129 19.4906 52.4812 19.1893 52.1788 18.86C52.0819 18.7631 51.9923 18.6591 51.9108 18.549C51.8625 18.4918 51.8385 18.418 51.8437 18.3433C51.8489 18.2687 51.883 18.199 51.9388 18.149C51.9895 18.1058 52.0541 18.0823 52.1208 18.083C52.1611 18.0825 52.201 18.0906 52.238 18.1068C52.2749 18.123 52.3079 18.147 52.3348 18.177L52.5898 18.477C52.8721 18.7853 53.1798 19.0693 53.5098 19.326C53.5699 19.3719 53.6095 19.4395 53.6202 19.5143C53.6308 19.5892 53.6117 19.6652 53.5668 19.726C53.505 19.7841 53.4235 19.8166 53.3388 19.817ZM64.7258 19.76C64.6676 19.76 64.6108 19.7424 64.5629 19.7096C64.5149 19.6767 64.4779 19.6302 64.4568 19.576C64.4436 19.5412 64.4377 19.504 64.4396 19.4669C64.4415 19.4297 64.4511 19.3933 64.4678 19.36C64.4996 19.291 64.5564 19.2367 64.6268 19.208L65.0648 19.047C65.4308 18.913 65.8088 18.775 66.2108 18.613C66.2426 18.6005 66.2765 18.5941 66.3108 18.594C66.3765 18.593 66.4405 18.615 66.4917 18.6562C66.5429 18.6973 66.5782 18.7551 66.5913 18.8195C66.6045 18.8839 66.5948 18.9509 66.5638 19.0088C66.5328 19.0668 66.4826 19.1121 66.4218 19.137C65.7908 19.389 65.2828 19.578 64.8218 19.731C64.7928 19.7487 64.7597 19.7587 64.7258 19.76ZM67.8948 18.53C67.839 18.5282 67.7847 18.5116 67.7374 18.4819C67.6901 18.4522 67.6516 18.4105 67.6258 18.361C67.5988 18.2914 67.6001 18.2141 67.6292 18.1454C67.6583 18.0767 67.713 18.022 67.7818 17.993C68.0438 17.887 68.3088 17.775 68.5668 17.668C68.8248 17.561 69.0898 17.449 69.3518 17.343C69.3836 17.3302 69.4175 17.3234 69.4518 17.323C69.4988 17.3219 69.5454 17.3328 69.5872 17.3546C69.629 17.3764 69.6645 17.4084 69.6906 17.4476C69.7166 17.4868 69.7323 17.532 69.7362 17.5789C69.7401 17.6259 69.732 17.673 69.7128 17.716C69.6988 17.7498 69.6783 17.7805 69.6524 17.8062C69.6264 17.832 69.5956 17.8523 69.5618 17.866C69.0208 18.101 68.4738 18.322 67.9918 18.517C67.9783 18.5175 67.9648 18.5195 67.9518 18.523C67.9331 18.5275 67.914 18.5298 67.8948 18.53ZM51.0898 17.3C51.0425 17.2991 50.9961 17.287 50.9544 17.2648C50.9127 17.2425 50.8769 17.2108 50.8498 17.172C50.5284 16.6896 50.2355 16.1887 49.9728 15.672C49.956 15.6386 49.946 15.6022 49.9433 15.5649C49.9407 15.5276 49.9454 15.4902 49.9572 15.4547C49.9689 15.4192 49.9876 15.3864 50.0121 15.3582C50.0365 15.3299 50.0663 15.3068 50.0998 15.29C50.1332 15.2733 50.1696 15.2633 50.2069 15.2606C50.2442 15.2579 50.2816 15.2626 50.3171 15.2744C50.3525 15.2862 50.3853 15.3049 50.4136 15.3293C50.4419 15.3538 50.465 15.3836 50.4818 15.417C50.7305 15.91 51.0094 16.3873 51.3168 16.846C51.3594 16.912 51.3745 16.9921 51.3588 17.069C51.3521 17.104 51.3387 17.1372 51.3191 17.1669C51.2995 17.1966 51.2743 17.2221 51.2448 17.242C51.2017 17.2793 51.1467 17.2999 51.0898 17.3ZM71.0348 17.215C70.9804 17.215 70.9272 17.199 70.8818 17.1689C70.8365 17.1389 70.801 17.0961 70.7798 17.046C70.751 16.9762 70.751 16.8978 70.7798 16.828C70.7939 16.7942 70.8146 16.7635 70.8407 16.7378C70.8668 16.712 70.8978 16.6917 70.9318 16.678C71.4418 16.458 71.9598 16.247 72.4608 16.044L72.5018 16.027C72.5335 16.0141 72.5675 16.0073 72.6018 16.007C72.6674 16.0063 72.7312 16.0284 72.7823 16.0697C72.8333 16.1109 72.8684 16.1687 72.8814 16.233C72.8944 16.2973 72.8846 16.3642 72.8537 16.4221C72.8227 16.4799 72.7725 16.5252 72.7118 16.55L72.6568 16.572C72.1568 16.772 71.6468 16.982 71.1408 17.201C71.1179 17.2017 71.0952 17.2044 71.0728 17.209C71.0602 17.2115 71.0475 17.2132 71.0348 17.214V17.215ZM88.0938 17.173C88.0462 17.1742 87.9992 17.1632 87.9571 17.1409C87.9151 17.1187 87.8795 17.086 87.8538 17.046C87.5589 16.5881 87.2122 16.1657 86.8208 15.787C86.7935 15.7613 86.7718 15.7303 86.757 15.6959C86.7422 15.6615 86.7345 15.6245 86.7345 15.587C86.7345 15.5496 86.7422 15.5125 86.757 15.4781C86.7718 15.4437 86.7935 15.4127 86.8208 15.387C86.8463 15.3595 86.8773 15.3376 86.9117 15.3226C86.9461 15.3076 86.9832 15.2998 87.0208 15.2998C87.0583 15.2998 87.0954 15.3076 87.1299 15.3226C87.1643 15.3376 87.1952 15.3595 87.2208 15.387C87.6375 15.8016 88.012 16.2565 88.3388 16.745C88.3589 16.7764 88.3726 16.8115 88.3789 16.8483C88.3853 16.885 88.3842 16.9227 88.3758 16.959C88.3595 17.0329 88.3159 17.0979 88.2538 17.141L88.2308 17.147C88.1862 17.1618 88.1397 17.1702 88.0928 17.172L88.0938 17.173ZM74.1748 15.942C74.1167 15.9417 74.06 15.924 74.0121 15.8912C73.9642 15.8584 73.9271 15.812 73.9058 15.758C73.8786 15.6885 73.8797 15.611 73.9088 15.5422C73.938 15.4735 73.9929 15.4188 74.0618 15.39C74.4618 15.235 74.8278 15.1 75.1848 14.97L75.6548 14.8C75.6843 14.7881 75.7159 14.782 75.7478 14.782C75.8054 14.7821 75.8615 14.8002 75.9082 14.834C75.9548 14.8677 75.9897 14.9153 76.0078 14.97C76.0205 15.0043 76.0262 15.0408 76.0245 15.0774C76.0228 15.1139 76.0137 15.1497 75.9978 15.1827C75.9819 15.2156 75.9596 15.245 75.9321 15.2691C75.9046 15.2933 75.8725 15.3116 75.8378 15.323C75.3888 15.477 74.9148 15.655 74.4128 15.844L74.2538 15.904C74.2451 15.9168 74.2333 15.927 74.2194 15.9337C74.2055 15.9404 74.1901 15.9432 74.1748 15.942ZM85.6608 14.853C85.6123 14.8502 85.5645 14.8404 85.5188 14.824C85.0427 14.5638 84.5338 14.3688 84.0058 14.244C83.9376 14.2286 83.8776 14.1884 83.8374 14.1313C83.7971 14.0742 83.7796 14.0041 83.788 13.9348C83.7965 13.8654 83.8304 13.8017 83.8832 13.7559C83.936 13.7101 84.0039 13.6856 84.0738 13.687C84.0932 13.687 84.1126 13.6887 84.1318 13.692C84.7098 13.8277 85.2666 14.0416 85.7868 14.328C85.8193 14.3456 85.8481 14.3695 85.8714 14.3982C85.8947 14.427 85.9122 14.46 85.9227 14.4955C85.9332 14.531 85.9365 14.5683 85.9326 14.6051C85.9287 14.6419 85.9175 14.6775 85.8998 14.71C85.8763 14.753 85.8417 14.7889 85.7997 14.814C85.7577 14.8392 85.7097 14.8526 85.6608 14.853ZM77.3848 14.824C77.3242 14.8251 77.2651 14.8061 77.2166 14.7699C77.168 14.7337 77.1329 14.6823 77.1168 14.624C77.1063 14.5876 77.1032 14.5495 77.1076 14.512C77.112 14.4744 77.1239 14.438 77.1425 14.4051C77.1612 14.3721 77.1861 14.3432 77.2161 14.32C77.246 14.2968 77.2802 14.2798 77.3168 14.27C77.9088 14.097 78.4888 13.953 78.9858 13.832C79.0049 13.8287 79.0243 13.827 79.0438 13.827C79.1137 13.8253 79.1818 13.8497 79.2348 13.8953C79.2878 13.941 79.322 14.0048 79.3306 14.0743C79.3392 14.1437 79.3216 14.2139 79.2814 14.2711C79.2411 14.3284 79.181 14.3686 79.1128 14.384C78.5668 14.506 78.0188 14.649 77.4858 14.809C77.4533 14.8201 77.4191 14.8251 77.3848 14.824ZM49.5898 14.259C49.5292 14.2605 49.4698 14.2415 49.4212 14.2053C49.3727 14.169 49.3376 14.1175 49.3218 14.059C49.1522 13.5026 49.0242 12.9344 48.9388 12.359C48.9278 12.284 48.9469 12.2078 48.9918 12.1467C49.0368 12.0857 49.1039 12.0449 49.1788 12.033C49.1944 12.0316 49.2101 12.0316 49.2258 12.033C49.2935 12.0348 49.3584 12.0603 49.4092 12.1051C49.46 12.1499 49.4935 12.2111 49.5038 12.278C49.5786 12.8255 49.7018 13.3652 49.8718 13.891C49.8927 13.9624 49.8853 14.0391 49.851 14.105C49.8167 14.171 49.7582 14.2212 49.6878 14.245C49.6562 14.2557 49.623 14.2605 49.5898 14.259ZM80.7368 14.118H80.7088C80.638 14.1195 80.5693 14.094 80.5167 14.0466C80.4641 13.9992 80.4316 13.9336 80.4258 13.863C80.4188 13.7881 80.4416 13.7134 80.4894 13.6551C80.5371 13.5969 80.6059 13.5599 80.6808 13.552C81.1643 13.4946 81.6508 13.4652 82.1378 13.464C82.2378 13.464 82.3288 13.464 82.4218 13.464C82.4595 13.4639 82.4968 13.4718 82.5313 13.4872C82.5657 13.5025 82.5966 13.5249 82.6218 13.553C82.6576 13.5935 82.6813 13.6432 82.6901 13.6965C82.699 13.7498 82.6926 13.8045 82.6717 13.8544C82.6508 13.9042 82.6162 13.9471 82.572 13.9782C82.5278 14.0093 82.4757 14.0272 82.4218 14.03H82.3978C82.3131 14.03 82.2274 14.03 82.1408 14.03C81.6727 14.0313 81.2052 14.061 80.7408 14.119L80.7368 14.118ZM49.1368 10.918C49.0983 10.9174 49.0604 10.9091 49.0253 10.8936C48.9901 10.878 48.9584 10.8556 48.932 10.8277C48.9056 10.7997 48.8851 10.7668 48.8717 10.7308C48.8583 10.6948 48.8522 10.6564 48.8538 10.618C48.8745 10.0417 48.9363 9.46755 49.0388 8.90002C49.0494 8.83555 49.0826 8.77695 49.1324 8.73465C49.1822 8.69235 49.2454 8.66909 49.3108 8.66902C49.3287 8.66739 49.3468 8.66739 49.3648 8.66902C49.4018 8.67495 49.4372 8.68838 49.4688 8.70849C49.5004 8.7286 49.5276 8.75496 49.5487 8.78596C49.5698 8.81696 49.5843 8.85194 49.5913 8.88875C49.5984 8.92556 49.5979 8.96342 49.5898 9.00002C49.4873 9.54162 49.4258 10.0902 49.4058 10.641C49.4049 10.713 49.3767 10.7819 49.327 10.8338C49.2772 10.8858 49.2096 10.917 49.1378 10.921L49.1368 10.918ZM49.7458 7.58202C49.7168 7.58438 49.6877 7.57993 49.6608 7.56902C49.592 7.54674 49.5349 7.49822 49.5018 7.43402C49.4648 7.36719 49.4558 7.28845 49.4768 7.21502C49.6631 6.66483 49.8805 6.12563 50.1278 5.60002C50.1531 5.55061 50.1917 5.50922 50.2392 5.48044C50.2867 5.45166 50.3412 5.43663 50.3968 5.43702C50.4355 5.43699 50.4739 5.44446 50.5098 5.45902C50.577 5.49328 50.6289 5.55163 50.655 5.62243C50.6811 5.69323 50.6796 5.77128 50.6508 5.84102C50.4131 6.34238 50.2051 6.85727 50.0278 7.38302C50.0056 7.44025 49.967 7.48966 49.9168 7.52506C49.8666 7.56046 49.8071 7.58027 49.7458 7.58202ZM51.1748 4.51302C51.1242 4.514 51.0746 4.49933 51.0328 4.47102C50.9689 4.43329 50.9226 4.37185 50.9039 4.30011C50.8852 4.22837 50.8955 4.15214 50.9328 4.08802C51.1798 3.68802 51.5118 3.16502 51.8948 2.66002C51.9213 2.62467 51.9555 2.59584 51.9948 2.57574C52.0342 2.55563 52.0776 2.54478 52.1218 2.54402C52.1831 2.54405 52.2427 2.56485 52.2908 2.60302C52.3217 2.62621 52.3476 2.65529 52.3672 2.6886C52.3868 2.7219 52.3995 2.75875 52.4048 2.79702C52.4087 2.83253 52.4056 2.86847 52.3957 2.90279C52.3857 2.9371 52.3691 2.96912 52.3468 2.99702C52.0228 3.43002 51.7088 3.89702 51.4138 4.38402C51.3897 4.42546 51.3546 4.45944 51.3124 4.4822C51.2703 4.50497 51.2226 4.51563 51.1748 4.51302ZM53.1828 1.78302C53.1152 1.78076 53.0503 1.75574 52.9988 1.71202C52.943 1.66205 52.9089 1.59236 52.9037 1.51769C52.8985 1.44303 52.9225 1.36926 52.9708 1.31202C53.3441 0.884228 53.7393 0.476017 54.1548 0.0890177L54.1728 0.0710177C54.2254 0.0251734 54.2929 -4.77635e-05 54.3628 1.77427e-05C54.4027 -0.000450015 54.4421 0.00833683 54.478 0.025688C54.5139 0.0430392 54.5453 0.068482 54.5698 0.100018C54.5955 0.129399 54.6149 0.163697 54.627 0.200828C54.639 0.23796 54.6433 0.27715 54.6398 0.316018C54.6365 0.351309 54.6259 0.385531 54.6087 0.416515C54.5914 0.4475 54.568 0.474572 54.5398 0.496018C54.1303 0.87335 53.743 1.27402 53.3798 1.69602C53.3281 1.74985 53.2573 1.78111 53.1828 1.78302Z" fill="#5DB571"/>
<path d="M153.485 105.933C154.899 112.44 155.324 113.996 155.324 113.996H137.784L128.307 88.6758L148.393 89.9488C150.416 95.1674 152.117 100.505 153.485 105.933Z" fill="#F9D2DD"/>
<path d="M128.307 88.6758L130.57 94.6168L150.797 96.5968C149.722 93.4708 148.397 89.9488 148.397 89.9488L128.307 88.6758Z" fill="#F9ACC0"/>
<path d="M76.9611 89.6645L73.1421 113.994H138.916L134.107 93.7665L149.949 92.3525C149.949 92.3525 143.16 69.7205 129.581 62.3645C116.002 55.0085 96.4811 55.4335 84.3171 61.3745C76.8201 65.0385 64.6551 78.2075 62.3921 89.6645H76.9611Z" fill="#3D5CFF"/>
<path d="M76.9611 89.6646L73.1421 113.994H138.916L134.107 93.7666L149.949 92.3526C149.949 92.3526 146.272 71.9836 129.581 62.3646C116.2 54.6556 96.6661 55.8016 84.3171 61.3746C75.5471 65.3346 65.9281 75.2366 62.3921 89.6646H76.9611Z" fill="#3D5CFF"/>
<path d="M77.011 61.8132C76.916 61.8132 76.8219 61.7945 76.734 61.7582L69.181 58.6742C69.135 58.6608 69.0861 58.6608 69.04 58.6742L62.816 61.0742C62.4605 61.2135 62.082 61.2851 61.7 61.2852C61.0728 61.281 60.4612 61.0889 59.9443 60.7336C59.4274 60.3783 59.0288 59.8762 58.8 59.2922L55.9 51.7572C55.6044 50.988 55.6259 50.1329 55.96 49.3796C56.2941 48.6263 56.9134 48.0363 57.682 47.7392L74.981 41.0782C75.3373 40.9387 75.7165 40.8672 76.099 40.8672C76.727 40.8685 77.3398 41.0595 77.8573 41.4152C78.3748 41.7708 78.7728 42.2745 78.999 42.8602L81.899 50.3992C82.048 50.779 82.1196 51.1847 82.1097 51.5925C82.0997 52.0004 82.0084 52.4021 81.841 52.7742C81.6757 53.1479 81.4383 53.4853 81.1425 53.7672C80.8467 54.0491 80.4982 54.27 80.117 54.4172L76.411 55.8452C76.3617 55.8658 76.322 55.9044 76.3 55.9532C76.2898 55.9763 76.2845 56.0014 76.2845 56.0267C76.2845 56.052 76.2898 56.077 76.3 56.1002L78 60.4852C78.0879 60.7155 78.0806 60.9713 77.9799 61.1963C77.8792 61.4214 77.6933 61.5972 77.463 61.6852H77.449C77.4465 61.6853 77.444 61.686 77.4417 61.6872C77.4395 61.6884 77.4375 61.6901 77.436 61.6922C77.4342 61.6944 77.4319 61.6962 77.4294 61.6974C77.4268 61.6986 77.4239 61.6992 77.421 61.6992C77.2968 61.7725 77.1554 61.8118 77.011 61.8132ZM67.258 48.6312L64.444 48.7442C64.425 48.7442 64.405 48.7522 64.386 48.7552C64.3474 48.7599 64.3096 48.7703 64.274 48.7862C64.209 48.8106 64.1495 48.8479 64.0991 48.8958C64.0488 48.9438 64.0086 49.0014 63.981 49.0652C63.9535 49.1283 63.9393 49.1964 63.9393 49.2652C63.9393 49.334 63.9535 49.4021 63.981 49.4652L65.948 54.5722C65.9828 54.6715 66.0476 54.7575 66.1334 54.8184C66.2192 54.8793 66.3218 54.9121 66.427 54.9122H66.457L69.64 54.7992C69.6643 54.8015 69.6886 54.7967 69.71 54.7852C69.7701 54.7587 69.818 54.7105 69.8441 54.6503C69.8703 54.59 69.8727 54.5222 69.851 54.4602L67.758 48.9602C67.7168 48.8619 67.6472 48.7782 67.5581 48.7196C67.4691 48.661 67.3646 48.6302 67.258 48.6312ZM70.974 46.2182C70.8519 46.2186 70.7337 46.261 70.639 46.3382L68.489 48.1502C68.4128 48.2204 68.3587 48.3114 68.3335 48.412C68.3083 48.5125 68.313 48.6183 68.347 48.7162L70.469 54.2162V54.2252C70.4789 54.2475 70.4916 54.2683 70.507 54.2872C70.5301 54.3138 70.5587 54.3351 70.5908 54.3496C70.623 54.3641 70.6578 54.3714 70.693 54.3712C70.749 54.3716 70.8032 54.3521 70.846 54.3162L73.298 52.2672C73.3874 52.2003 73.4496 52.1033 73.4731 51.9941C73.4966 51.885 73.4799 51.771 73.426 51.6732L71.459 46.5512C71.4465 46.5118 71.4261 46.4754 71.399 46.4442L71.374 46.4092C71.3258 46.3497 71.2648 46.3018 71.1956 46.2689C71.1264 46.236 71.0507 46.219 70.974 46.2192V46.2182Z" fill="white"/>
<path d="M152.665 37.9227C152.892 37.9245 153.115 37.8581 153.304 37.7321C153.493 37.606 153.64 37.4262 153.726 37.2157C153.811 37.0083 153.835 36.7808 153.795 36.5601C153.755 36.3395 153.653 36.135 153.5 35.9707L152.821 37.5977C152.775 37.7087 152.723 37.8172 152.665 37.9227V37.9227Z" fill="white"/>
<path d="M150.6 35.1921L150.557 34.2311C150.529 33.8921 150.317 33.7931 150.076 34.0311L149.369 34.6551L148.464 34.4141C148.152 34.3441 147.997 34.5281 148.124 34.8251L148.476 35.7301L147.953 36.5791C147.783 36.8621 147.896 37.0601 148.222 37.0171L149.171 36.9001L149.751 37.6781C149.951 37.9331 150.161 37.8781 150.251 37.5511L150.476 36.5931L151.367 36.2111C151.667 36.0701 151.692 35.8291 151.409 35.6591L150.6 35.1921Z" fill="white"/>
<path d="M146.059 35.221C146.088 35.0897 146.131 34.9618 146.186 34.839L146.88 33.17C146.635 33.1409 146.388 33.193 146.176 33.3182C145.964 33.4434 145.799 33.6348 145.706 33.863C145.61 34.0971 145.593 34.3559 145.657 34.6006C145.72 34.8453 145.861 35.0629 146.059 35.221Z" fill="white"/>
<path d="M139.571 48.8081C139.413 48.8072 139.259 48.7603 139.128 48.6731L138.902 48.5881C138.806 48.5523 138.718 48.4979 138.643 48.4278C138.568 48.3578 138.508 48.2736 138.466 48.1801C138.423 48.0845 138.399 47.9814 138.397 47.8767C138.394 47.772 138.412 47.6678 138.45 47.5701L140.444 42.4071L136.03 40.7071C135.252 40.4003 134.626 39.7996 134.287 39.0347C133.948 38.2699 133.924 37.4025 134.22 36.6201L137.52 28.0341C137.824 27.2544 138.424 26.6266 139.189 26.2875C139.954 25.9484 140.822 25.9256 141.604 26.2241L160.771 33.6081C161.549 33.9111 162.175 34.5091 162.514 35.272C162.853 36.0348 162.877 36.9007 162.581 37.6811L159.272 46.2671C158.968 47.0481 158.368 47.6771 157.602 48.0164C156.836 48.3558 155.966 48.378 155.184 48.0781L148.153 45.3621L139.878 48.7421C139.781 48.7855 139.677 48.808 139.571 48.8081ZM145.512 40.5881C145.404 40.5883 145.299 40.6262 145.215 40.6952C145.132 40.7642 145.075 40.8601 145.054 40.9664C145.034 41.0728 145.051 41.183 145.103 41.2781C145.154 41.3733 145.237 41.4475 145.338 41.4881L148.548 42.8171C148.605 42.8407 148.665 42.8529 148.727 42.8531C148.836 42.8541 148.942 42.8169 149.026 42.7479C149.111 42.6789 149.168 42.5826 149.189 42.4756C149.209 42.3685 149.192 42.2577 149.139 42.1622C149.087 42.0668 149.002 41.9928 148.901 41.9531L147.727 41.4581L148.378 39.8881C148.985 40.0654 149.627 40.079 150.241 39.9274C150.855 39.7758 151.417 39.4645 151.872 39.0251C152.074 39.0907 152.286 39.1244 152.499 39.1251C152.912 39.1247 153.316 39.0025 153.66 38.7738C154.004 38.545 154.273 38.2199 154.433 37.8391C154.615 37.41 154.644 36.9314 154.515 36.4834C154.387 36.0354 154.108 35.6452 153.726 35.3781L154.026 34.6571C154.095 34.4938 154.096 34.3098 154.03 34.1455C153.964 33.9811 153.835 33.8497 153.672 33.7801L148.272 31.5311C148.189 31.4954 148.1 31.4767 148.01 31.4761C147.878 31.4749 147.749 31.5129 147.64 31.5852C147.53 31.6575 147.444 31.7608 147.393 31.8821L147.109 32.5751C146.956 32.5398 146.8 32.522 146.643 32.5221C146.162 32.5187 145.695 32.6813 145.32 32.9827C144.945 33.284 144.686 33.7054 144.587 34.1757C144.487 34.646 144.552 35.1364 144.772 35.5639C144.992 35.9915 145.353 36.3299 145.794 36.5221C145.806 37.1304 145.971 37.7258 146.276 38.2527C146.58 38.7796 147.013 39.2208 147.534 39.5351L146.866 41.1141L145.692 40.6191C145.634 40.5968 145.572 40.5863 145.51 40.5881H145.512Z" fill="white"/>
<path d="M76.6069 91.9008L77.2009 92.0568L81.2179 77.2188L72.9009 89.6667H76.9609L76.6069 91.9008Z" fill="#224BF4"/>
<path d="M85.1648 24.316C85.4478 18.941 89.6908 16.678 91.3888 16.536C92.3671 16.4392 93.3521 16.6363 94.2178 17.102C94.2178 17.102 94.9249 8.04897 100.724 6.77597C106.523 5.50297 109.352 7.76597 110.908 10.029C112.464 12.292 112.323 13.565 112.323 13.565C112.323 13.565 114.586 11.726 118.547 13.282C122.508 14.838 121.376 19.223 121.376 19.223C121.376 19.223 124.488 18.374 126.044 23.466C127.6 28.558 122.366 37.045 120.386 38.318C118.406 39.591 89.6908 34.5 89.6908 34.5C89.6908 34.5 84.8818 29.691 85.1648 24.316Z" fill="#1F1F39"/>
<path d="M88.418 32.3777C85.589 33.6507 85.306 37.4697 87.428 39.8777C89.55 42.2857 94.928 41.7167 94.928 41.7167L93.482 32.9997C92.7726 32.4486 91.9273 32.0998 91.0358 31.9902C90.1442 31.8807 89.2396 32.0146 88.418 32.3777Z" fill="#F9ACC0"/>
<path d="M122.239 32.3777C125.068 33.6507 125.351 37.4697 123.229 39.8777C121.107 42.2857 115.732 41.7137 115.732 41.7137L117.175 32.9997C117.884 32.4486 118.73 32.0998 119.621 31.9902C120.513 31.8807 121.417 32.0146 122.239 32.3777Z" fill="#F9ACC0"/>
<path d="M93.9341 39.9444C93.7953 39.0079 93.4205 38.1222 92.8451 37.3704C92.0583 36.3333 90.9644 35.5708 89.7191 35.1914C89.6647 35.1781 89.6179 35.1438 89.5888 35.096C89.5597 35.0482 89.5509 34.9908 89.5641 34.9364C89.5774 34.882 89.6117 34.8352 89.6595 34.8061C89.7073 34.777 89.7647 34.7681 89.8191 34.7814C91.1685 35.1807 92.3533 36.004 93.1981 37.1294C93.8365 37.9388 94.2424 38.9068 94.3721 39.9294C94.3681 39.988 94.3431 40.0432 94.3015 40.0848C94.2599 40.1263 94.2047 40.1514 94.1461 40.1554C94.0905 40.1539 94.0376 40.1312 93.9982 40.092C93.9588 40.0528 93.9359 40 93.9341 39.9444Z" fill="#1F1F39"/>
<path d="M117.387 39.7057C117.339 39.6782 117.303 39.6346 117.285 39.5827C117.266 39.5308 117.267 39.4741 117.287 39.4227C117.859 38.3143 118.588 37.2947 119.453 36.3957C120.038 35.6979 120.815 35.1859 121.687 34.9227C121.741 34.9137 121.797 34.9265 121.842 34.9584C121.887 34.9902 121.917 35.0385 121.927 35.0927C121.936 35.1471 121.923 35.2028 121.891 35.2477C121.859 35.2926 121.811 35.3232 121.757 35.3327C120.977 35.5965 120.284 36.0665 119.75 36.6927C118.923 37.5611 118.224 38.5422 117.672 39.6067C117.657 39.6438 117.632 39.6757 117.599 39.6983C117.567 39.721 117.528 39.7333 117.488 39.7337C117.453 39.7313 117.418 39.7218 117.387 39.7057Z" fill="#1F1F39"/>
<path d="M94.3592 41.7137C95.4254 44.8934 97.5162 47.6296 100.304 49.4937C100.378 51.5303 100.236 53.569 99.8802 55.5757C99.6588 56.7992 99.2769 57.9881 98.7442 59.1117C98.7442 59.1117 99.7342 61.2337 104.968 61.2337C110.626 61.2337 112.182 59.1117 112.182 59.1117C111.747 57.7724 111.416 56.4017 111.192 55.0117C111.02 53.2254 110.973 51.4294 111.051 49.6367C111.051 49.6367 115.436 49.0707 117.133 42.8467C118.154 39.0218 118.442 35.0385 117.982 31.1067C117.982 31.1067 109.635 32.3777 106.804 28.9837C103.973 25.5897 101.148 22.1937 97.0462 23.8907C95.8813 24.3755 94.8918 25.2038 94.2095 26.2652C93.5273 27.3265 93.1846 28.5706 93.2272 29.8317C93.2272 29.8317 92.9442 36.7627 94.3592 41.7137Z" fill="#F9D2DD"/>
<path d="M99.832 29.7649C99.1011 30.187 98.2997 30.167 98.0422 29.721C97.7847 29.275 98.1676 28.5701 98.8985 28.1481C99.6294 27.7261 100.43 27.7466 100.688 28.1934C100.946 28.6403 100.562 29.3434 99.832 29.7649Z" fill="#1F1F39"/>
<path d="M101.29 37.1868C100.925 37.1567 100.587 36.9838 100.349 36.7058C100.11 36.4278 99.9912 36.067 100.017 35.7018C99.9912 35.3365 100.11 34.9758 100.349 34.6978C100.587 34.4198 100.925 34.2469 101.29 34.2168C101.655 34.2469 101.993 34.4198 102.232 34.6978C102.47 34.9758 102.589 35.3365 102.563 35.7018C102.589 36.067 102.47 36.4278 102.232 36.7058C101.993 36.9838 101.655 37.1567 101.29 37.1868Z" fill="#1F1F39"/>
<path d="M110.626 37.1868C110.261 37.1567 109.923 36.9838 109.685 36.7058C109.446 36.4278 109.327 36.067 109.353 35.7018C109.327 35.3365 109.446 34.9758 109.685 34.6978C109.923 34.4198 110.261 34.2469 110.626 34.2168C110.991 34.2469 111.329 34.4198 111.568 34.6978C111.806 34.9758 111.925 35.3365 111.899 35.7018C111.925 36.067 111.806 36.4278 111.568 36.7058C111.329 36.9838 110.991 37.1567 110.626 37.1868Z" fill="#1F1F39"/>
<path d="M106.099 40.5832C106.882 40.4787 107.593 40.0725 108.08 39.4512C108.197 39.9196 108.131 40.4153 107.894 40.8362C107.657 41.2572 107.268 41.5714 106.807 41.7142C105.109 42.2802 103.695 40.5832 104.119 39.4512C104.315 39.8022 104.603 40.0931 104.951 40.2926C105.3 40.4921 105.697 40.5926 106.099 40.5832Z" fill="#F95368"/>
<path d="M104.967 37.7526C105.391 38.6016 106.523 38.1766 106.523 38.1766C106.523 38.1766 105.388 37.8936 105.388 37.0406C105.477 36.2199 105.668 35.4136 105.958 34.6406C105.958 34.6406 104.543 36.9036 104.967 37.7526Z" fill="#1F1F39"/>
<path d="M98.9558 41.9975C97.8787 41.9975 96.8257 41.6781 95.9301 41.0797C95.0345 40.4812 94.3365 39.6307 93.9243 38.6356C93.5121 37.6404 93.4043 36.5454 93.6144 35.489C93.8245 34.4326 94.3432 33.4622 95.1049 32.7006C95.8665 31.9389 96.8369 31.4202 97.8933 31.2101C98.9497 31 100.045 31.1078 101.04 31.52C102.035 31.9322 102.886 32.6302 103.484 33.5258C104.082 34.4214 104.402 35.4744 104.402 36.5515C104.4 37.9954 103.826 39.3796 102.805 40.4006C101.784 41.4216 100.4 41.9959 98.9558 41.9975ZM98.9558 31.5295C97.9625 31.5293 96.9914 31.8236 96.1654 32.3753C95.3394 32.927 94.6956 33.7113 94.3153 34.6289C93.9351 35.5466 93.8355 36.5564 94.0291 37.5306C94.2228 38.5048 94.701 39.3998 95.4033 40.1022C96.1056 40.8046 97.0005 41.283 97.9747 41.4769C98.9489 41.6708 99.9587 41.5714 100.876 41.1913C101.794 40.8112 102.578 40.1675 103.13 39.3416C103.682 38.5158 103.977 37.5448 103.977 36.5515C103.975 35.2202 103.446 33.9439 102.504 33.0025C101.563 32.0611 100.287 31.5313 98.9558 31.5295Z" fill="#1F1F39"/>
<path d="M112.535 41.9975C111.458 41.9975 110.405 41.6781 109.509 41.0797C108.614 40.4812 107.916 39.6307 107.503 38.6356C107.091 37.6404 106.983 36.5454 107.194 35.489C107.404 34.4326 107.922 33.4622 108.684 32.7006C109.446 31.9389 110.416 31.4202 111.472 31.2101C112.529 31 113.624 31.1078 114.619 31.52C115.614 31.9322 116.465 32.6302 117.063 33.5258C117.661 34.4214 117.981 35.4744 117.981 36.5515C117.979 37.9954 117.405 39.3796 116.384 40.4006C115.363 41.4216 113.979 41.9959 112.535 41.9975ZM112.535 31.5295C111.542 31.5293 110.571 31.8236 109.745 32.3753C108.919 32.927 108.275 33.7113 107.894 34.6289C107.514 35.5466 107.415 36.5564 107.608 37.5306C107.802 38.5048 108.28 39.3998 108.982 40.1022C109.685 40.8046 110.58 41.283 111.554 41.4769C112.528 41.6708 113.538 41.5714 114.455 41.1913C115.373 40.8112 116.158 40.1675 116.709 39.3416C117.261 38.5158 117.556 37.5448 117.556 36.5515C117.554 35.2202 117.025 33.9439 116.084 33.0025C115.142 32.0611 113.866 31.5313 112.535 31.5295Z" fill="#1F1F39"/>
<path d="M104.147 34.9399C104.731 34.8037 105.329 34.7366 105.929 34.7399C106.428 34.7129 106.928 34.7849 107.4 34.9519L107.23 35.3339C106.816 35.2023 106.381 35.1448 105.947 35.1639C105.375 35.1482 104.803 35.2101 104.247 35.3479L104.147 34.9399Z" fill="#1F1F39"/>
<path d="M99.8758 55.5761C99.7768 56.0011 99.6928 56.3831 99.5928 56.7361C99.6778 56.7081 99.7628 56.6941 99.8478 56.6651C105.959 55.0521 109.254 52.9591 111.008 51.3461C111.008 50.3561 111.036 49.6341 111.036 49.6341C111.036 49.6341 109.336 50.6241 105.236 50.4831C103.541 50.4865 101.863 50.1502 100.3 49.4941C100.36 51.5305 100.218 53.5678 99.8758 55.5761Z" fill="#F9ACC0"/>
<path d="M112.959 40.8657C111.436 40.8657 110.201 40.1057 110.201 39.1707C110.201 38.2357 111.436 37.4707 112.959 37.4707C114.482 37.4707 115.718 38.2307 115.718 39.1707C115.718 40.1107 114.483 40.8657 112.959 40.8657Z" fill="#F9ACC0"/>
<path d="M98.3898 40.8657C96.8668 40.8657 95.6318 40.1057 95.6318 39.1707C95.6318 38.2357 96.8668 37.4707 98.3898 37.4707C99.9128 37.4707 101.149 38.2307 101.149 39.1707C101.149 40.1107 99.9138 40.8657 98.3898 40.8657Z" fill="#F9ACC0"/>
<path d="M134.107 93.7669L138.831 93.3669L128.307 75.3789L134.107 93.7669Z" fill="#224BF4"/>
<path d="M100.258 49.8861C100.233 49.8721 100.21 49.8529 100.193 49.8298C100.175 49.8067 100.163 49.7801 100.156 49.7519C100.149 49.7236 100.149 49.6942 100.154 49.6657C100.159 49.6372 100.171 49.61 100.187 49.5861C100.201 49.5607 100.22 49.5385 100.243 49.5209C100.266 49.5033 100.293 49.4908 100.321 49.4841C100.35 49.4774 100.379 49.4767 100.407 49.4821C100.436 49.4874 100.463 49.4987 100.487 49.5151C101.764 50.1667 103.18 50.4999 104.614 50.4861C104.67 50.4861 104.724 50.5084 104.764 50.5482C104.804 50.588 104.826 50.6419 104.826 50.6981C104.826 50.7543 104.804 50.8083 104.764 50.848C104.724 50.8878 104.67 50.9101 104.614 50.9101C103.1 50.9297 101.605 50.5781 100.258 49.8861Z" fill="#1F1F39"/>
<path d="M95.6318 92.3814C96.4238 91.7024 96.3108 90.2314 95.9708 89.3264C95.6697 88.6902 95.2948 88.0918 94.8538 87.5434C94.6351 87.2903 94.5033 86.9737 94.4777 86.6402C94.4521 86.3067 94.5342 85.9738 94.7118 85.6904C95.2208 84.9974 96.7208 84.8844 97.8948 85.2094C98.7068 85.3971 99.448 85.8135 100.031 86.4094C100.804 87.2658 101.384 88.2788 101.731 89.3794C102.445 88.9822 103.248 88.7737 104.065 88.7737C104.882 88.7737 105.685 88.9822 106.399 89.3794C106.731 89.6191 106.997 89.94 107.17 90.3114C107.343 90.6829 107.419 91.0925 107.389 91.5014C108.241 91.533 109.05 91.8868 109.652 92.4914C109.937 92.8442 110.116 93.2716 110.166 93.7229C110.216 94.1742 110.136 94.6303 109.935 95.0374C110.344 95.4384 110.611 95.9612 110.698 96.5273C110.785 97.0934 110.686 97.6723 110.416 98.1774C109.794 99.2774 107.474 101.977 102.916 104.344C96.0988 107.884 81.8548 116.371 72.0238 117.389C65.6728 118.035 56.8838 115.835 59.4348 104.093C61.9858 92.3514 62.9708 89.6654 62.9708 89.6654H77.8228L75.5458 98.5764C75.5458 98.5764 94.8398 93.0604 95.6318 92.3814Z" fill="#F9D2DD"/>
<path d="M67.0738 101.407C67.0565 101.354 67.06 101.297 67.0837 101.247C67.1073 101.197 67.1492 101.158 67.2008 101.138L75.4758 98.3797C75.5283 98.3627 75.5853 98.3663 75.6351 98.3899C75.6849 98.4136 75.7238 98.4553 75.7438 98.5067C75.7612 98.5593 75.7577 98.6165 75.734 98.6666C75.7104 98.7166 75.6685 98.7557 75.6168 98.7757L67.3418 101.534C67.32 101.545 67.2954 101.55 67.2708 101.548C67.2276 101.547 67.1855 101.533 67.1504 101.508C67.1152 101.483 67.0885 101.447 67.0738 101.407Z" fill="#1F1F39"/>
<path d="M103.157 94.0917C103.129 94.042 103.12 93.9834 103.134 93.9277C103.147 93.872 103.18 93.8234 103.228 93.7917L107.259 91.3207C107.309 91.2923 107.367 91.2839 107.423 91.2971C107.479 91.3103 107.527 91.3441 107.559 91.3917C107.587 91.4414 107.596 91.5 107.583 91.5557C107.57 91.6113 107.536 91.66 107.488 91.6917L103.454 94.1637C103.418 94.1796 103.38 94.1891 103.341 94.1917C103.305 94.1899 103.27 94.1799 103.238 94.1626C103.206 94.1453 103.178 94.1211 103.157 94.0917Z" fill="#1F1F39"/>
<path d="M105.562 97.7694C105.534 97.7197 105.525 97.6611 105.538 97.6054C105.551 97.5498 105.585 97.5011 105.633 97.4694L109.664 94.9984C109.714 94.9701 109.772 94.9616 109.828 94.9748C109.884 94.988 109.932 95.0218 109.964 95.0694C109.992 95.1191 110.001 95.1777 109.987 95.2334C109.974 95.2891 109.941 95.3377 109.893 95.3694L105.859 97.8414C105.823 97.8573 105.785 97.8668 105.746 97.8694C105.71 97.8676 105.674 97.8577 105.643 97.8404C105.611 97.823 105.583 97.7988 105.562 97.7694Z" fill="#1F1F39"/>
<path d="M101.728 89.3671C101.672 90.6542 101.223 91.8932 100.441 92.9171C102.732 92.7511 104.147 90.5511 104.925 88.8151C103.828 88.6576 102.709 88.8508 101.728 89.3671Z" fill="#F9ACC0"/>
<path d="M77.8101 89.666H62.9571C62.9571 89.666 62.5611 90.727 61.6421 94.447L77.4141 91.236L77.8101 89.666Z" fill="#F9ACC0"/>
<path d="M105.689 85.6765C105.655 85.6603 105.625 85.6372 105.601 85.6086C105.576 85.5801 105.558 85.5467 105.548 85.5107C105.537 85.4747 105.534 85.4368 105.539 85.3996C105.544 85.3623 105.557 85.3265 105.576 85.2945L107.136 82.3245C107.152 82.2912 107.175 82.2616 107.204 82.2376C107.232 82.2136 107.265 82.1957 107.3 82.1851C107.336 82.1744 107.373 82.1713 107.41 82.1759C107.447 82.1804 107.482 82.1926 107.514 82.2115C107.548 82.2277 107.578 82.2508 107.603 82.2794C107.627 82.308 107.645 82.3413 107.656 82.3774C107.666 82.4134 107.669 82.4512 107.664 82.4885C107.66 82.5257 107.647 82.5615 107.627 82.5935L106.071 85.5635C106.043 85.6058 106.005 85.6406 105.961 85.6652C105.917 85.6897 105.867 85.7032 105.816 85.7045C105.773 85.7019 105.73 85.6925 105.689 85.6765Z" fill="#EAEAFF"/>
<path d="M90.1298 71.0638L88.8568 66.3968C88.8461 66.3605 88.8427 66.3223 88.847 66.2846C88.8513 66.2469 88.8632 66.2105 88.8818 66.1775C88.9005 66.1445 88.9256 66.1155 88.9556 66.0924C88.9857 66.0693 89.0201 66.0524 89.0568 66.0428C89.0932 66.0321 89.1313 66.0288 89.169 66.0331C89.2067 66.0374 89.2431 66.0492 89.2762 66.0679C89.3092 66.0865 89.3381 66.1116 89.3613 66.1417C89.3844 66.1717 89.4012 66.2061 89.4108 66.2428L90.6818 70.9088C90.6925 70.9452 90.6959 70.9834 90.6916 71.0211C90.6873 71.0587 90.6754 71.0952 90.6568 71.1282C90.6381 71.1612 90.613 71.1902 90.583 71.2133C90.5529 71.2364 90.5185 71.2533 90.4818 71.2628C90.4547 71.2733 90.4258 71.2781 90.3968 71.2768C90.3347 71.277 90.2744 71.256 90.2259 71.2173C90.1773 71.1785 90.1435 71.1244 90.1298 71.0638Z" fill="#EAEAFF"/>
<path d="M96.2399 78.7595C96.1714 78.7303 96.1169 78.6756 96.0879 78.6069C96.059 78.5382 96.0579 78.461 96.0849 78.3915L97.7819 74.0065C97.8111 73.938 97.8659 73.8835 97.9345 73.8545C98.0032 73.8256 98.0805 73.8245 98.1499 73.8515C98.2182 73.8807 98.2726 73.9353 98.3015 74.0038C98.3304 74.0722 98.3316 74.1492 98.3049 74.2185L96.6079 78.6035C96.5835 78.6542 96.5454 78.6971 96.4978 78.7271C96.4503 78.7572 96.3952 78.7733 96.3389 78.7735C96.3053 78.7758 96.2716 78.7711 96.2399 78.7595Z" fill="#EAEAFF"/>
<path d="M85.476 88.9432L83.495 85.1232C83.4639 85.0559 83.4603 84.9791 83.4849 84.9092C83.5095 84.8393 83.5603 84.7817 83.6267 84.7486C83.693 84.7156 83.7697 84.7097 83.8403 84.7322C83.9109 84.7547 83.97 84.8039 84.005 84.8692L85.985 88.6882C86.002 88.7216 86.0121 88.758 86.0149 88.7953C86.0177 88.8327 86.0131 88.8702 86.0013 88.9057C85.9895 88.9413 85.9707 88.9741 85.9461 89.0023C85.9215 89.0306 85.8916 89.0536 85.858 89.0702C85.8174 89.0862 85.7745 89.0956 85.731 89.0982C85.6787 89.0969 85.6276 89.0819 85.5829 89.0547C85.5381 89.0275 85.5013 88.989 85.476 88.9432Z" fill="#EAEAFF"/>
<path d="M116.934 96.3678C116.906 96.3423 116.884 96.3113 116.869 96.2769C116.854 96.2425 116.847 96.2053 116.847 96.1678C116.847 96.1303 116.854 96.0931 116.869 96.0587C116.884 96.0243 116.906 95.9934 116.934 95.9678L119.056 93.8528C119.081 93.8253 119.112 93.8034 119.147 93.7884C119.181 93.7734 119.218 93.7656 119.256 93.7656C119.293 93.7656 119.331 93.7734 119.365 93.7884C119.399 93.8034 119.43 93.8253 119.456 93.8528C119.483 93.8784 119.505 93.9093 119.52 93.9437C119.535 93.9781 119.543 94.0153 119.543 94.0528C119.543 94.0903 119.535 94.1275 119.52 94.1619C119.505 94.1963 119.483 94.2273 119.456 94.2528L117.33 96.3678C117.304 96.3946 117.273 96.416 117.238 96.4306C117.204 96.4452 117.167 96.4527 117.13 96.4528C117.093 96.4522 117.057 96.4444 117.023 96.4298C116.99 96.4152 116.959 96.3942 116.934 96.3678Z" fill="#EAEAFF"/>
<path d="M118.038 108.223L115.775 105.394C115.75 105.365 115.732 105.332 115.72 105.296C115.709 105.26 115.705 105.222 115.709 105.185C115.713 105.147 115.725 105.111 115.743 105.078C115.762 105.045 115.787 105.017 115.817 104.994C115.846 104.971 115.879 104.953 115.914 104.943C115.949 104.932 115.987 104.929 116.023 104.934C116.06 104.938 116.095 104.949 116.127 104.968C116.16 104.986 116.188 105.011 116.21 105.04L118.477 107.869C118.502 107.897 118.52 107.931 118.532 107.967C118.543 108.003 118.547 108.041 118.543 108.078C118.539 108.116 118.527 108.152 118.509 108.185C118.49 108.218 118.465 108.246 118.435 108.269C118.414 108.293 118.388 108.312 118.358 108.324C118.329 108.337 118.297 108.342 118.265 108.34C118.221 108.338 118.178 108.327 118.138 108.307C118.099 108.287 118.065 108.258 118.038 108.223Z" fill="#EAEAFF"/>
<path d="M101.12 111.815C101.058 111.771 101.016 111.704 101.003 111.629C100.989 111.555 101.006 111.478 101.049 111.415L103.171 108.448C103.215 108.386 103.281 108.344 103.356 108.331C103.431 108.317 103.508 108.334 103.571 108.377C103.633 108.421 103.675 108.488 103.688 108.562C103.701 108.637 103.685 108.714 103.642 108.777L101.516 111.744C101.496 111.777 101.469 111.805 101.437 111.826C101.405 111.848 101.369 111.862 101.332 111.869C101.294 111.876 101.255 111.874 101.218 111.865C101.181 111.856 101.146 111.839 101.116 111.815H101.12Z" fill="#EAEAFF"/>
<path d="M128.774 105.493C128.703 105.466 128.645 105.412 128.614 105.343C128.582 105.275 128.578 105.196 128.604 105.125L130.019 101.164C130.045 101.092 130.099 101.034 130.168 101.003C130.203 100.987 130.24 100.978 130.277 100.977C130.315 100.975 130.353 100.981 130.388 100.995C130.423 101.008 130.456 101.028 130.483 101.053C130.511 101.079 130.533 101.11 130.549 101.144C130.565 101.178 130.573 101.215 130.575 101.253C130.576 101.291 130.57 101.328 130.557 101.364L129.142 105.323C129.121 105.377 129.084 105.423 129.036 105.456C128.988 105.489 128.931 105.506 128.873 105.507C128.839 105.509 128.806 105.504 128.774 105.493Z" fill="#EAEAFF"/>
<path d="M118.547 79.4801V74.5291C118.547 74.454 118.577 74.3821 118.63 74.329C118.683 74.2759 118.755 74.2461 118.83 74.2461C118.905 74.2461 118.977 74.2759 119.03 74.329C119.083 74.3821 119.113 74.454 119.113 74.5291V79.4801C119.113 79.5552 119.083 79.6271 119.03 79.6802C118.977 79.7333 118.905 79.7631 118.83 79.7631C118.755 79.7631 118.683 79.7333 118.63 79.6802C118.577 79.6271 118.547 79.5552 118.547 79.4801V79.4801Z" fill="#EAEAFF"/>
<path d="M108.942 68.0937L108.235 65.4057C108.225 65.3704 108.222 65.3335 108.227 65.2972C108.231 65.2608 108.243 65.2258 108.262 65.1942C108.28 65.1626 108.305 65.135 108.334 65.1131C108.364 65.0912 108.397 65.0754 108.433 65.0667C108.468 65.0568 108.505 65.0542 108.542 65.059C108.578 65.0637 108.613 65.0758 108.645 65.0945C108.677 65.1132 108.704 65.1381 108.726 65.1676C108.748 65.1972 108.763 65.2309 108.772 65.2667L109.48 67.9567C109.49 67.9921 109.492 68.0291 109.487 68.0656C109.483 68.102 109.471 68.1371 109.452 68.1688C109.433 68.2004 109.408 68.228 109.379 68.2498C109.349 68.2716 109.316 68.2872 109.28 68.2957C109.258 68.3071 109.233 68.3119 109.209 68.3097C109.146 68.3097 109.086 68.2882 109.037 68.2489C108.988 68.2096 108.955 68.1548 108.942 68.0937Z" fill="#EAEAFF"/>
<path d="M127.218 68.2918C127.147 68.265 127.089 68.2115 127.057 68.1426C127.026 68.0738 127.022 67.9952 127.048 67.9238L128.039 65.2358C128.065 65.1645 128.119 65.1066 128.188 65.0749C128.223 65.0592 128.26 65.0504 128.297 65.049C128.335 65.0476 128.372 65.0537 128.408 65.0668C128.443 65.0799 128.475 65.0999 128.503 65.1256C128.531 65.1512 128.553 65.182 128.569 65.2163C128.584 65.2506 128.593 65.2876 128.595 65.3253C128.596 65.3629 128.59 65.4005 128.577 65.4358L127.586 68.1218C127.565 68.1759 127.528 68.2224 127.48 68.2552C127.432 68.288 127.375 68.3056 127.317 68.3058C127.283 68.3081 127.249 68.3034 127.218 68.2918Z" fill="#EAEAFF"/>
<path d="M69.605 78.5048L69.464 75.3958C69.4622 75.3209 69.489 75.2482 69.539 75.1925C69.589 75.1367 69.6583 75.1021 69.733 75.0958C69.8078 75.094 69.8805 75.1208 69.9363 75.1708C69.992 75.2208 70.0266 75.2902 70.033 75.3648L70.171 78.4768C70.1711 78.5535 70.1418 78.6273 70.0892 78.6831C70.0365 78.7389 69.9645 78.7724 69.888 78.7768C69.8146 78.7773 69.744 78.7492 69.6911 78.6984C69.6382 78.6476 69.6073 78.5781 69.605 78.5048Z" fill="#EAEAFF"/>
<path d="M143.626 78.2214L139.566 77.4994C139.529 77.494 139.494 77.4812 139.462 77.4617C139.43 77.4423 139.403 77.4166 139.381 77.3862C139.36 77.3559 139.344 77.3214 139.336 77.285C139.328 77.2486 139.328 77.211 139.335 77.1744C139.34 77.137 139.353 77.1011 139.373 77.069C139.393 77.0368 139.419 77.009 139.45 76.9874C139.481 76.9657 139.516 76.9507 139.553 76.9431C139.59 76.9355 139.628 76.9356 139.665 76.9434L143.725 77.6694C143.793 77.6811 143.855 77.7178 143.897 77.7724C143.94 77.8269 143.961 77.8955 143.955 77.9645C143.95 78.0336 143.919 78.0982 143.869 78.1457C143.819 78.1932 143.752 78.2202 143.683 78.2214H143.626Z" fill="#EAEAFF"/>
<path d="M133.016 91.2633C133.012 91.2259 133.016 91.1881 133.027 91.1521C133.037 91.1161 133.055 91.0826 133.079 91.0535C133.103 91.0245 133.132 91.0004 133.165 90.9826C133.198 90.9649 133.235 90.9539 133.272 90.9503L149.058 89.5503C149.095 89.5465 149.133 89.5501 149.169 89.5608C149.205 89.5715 149.238 89.5892 149.267 89.6128C149.296 89.6365 149.32 89.6656 149.338 89.6985C149.356 89.7315 149.367 89.7676 149.371 89.8048C149.374 89.842 149.371 89.8797 149.36 89.9155C149.349 89.9514 149.332 89.9847 149.308 90.0138C149.285 90.0428 149.255 90.0669 149.222 90.0846C149.19 90.1024 149.153 90.1135 149.116 90.1173L133.328 91.5033C133.321 91.5109 133.311 91.5158 133.3 91.5173C133.23 91.5166 133.163 91.4905 133.11 91.4437C133.058 91.397 133.025 91.3329 133.016 91.2633Z" fill="#EAEAFF"/>
<path d="M62.6461 87.4291C62.6443 87.3543 62.6711 87.2816 62.7211 87.2258C62.7711 87.1701 62.8405 87.1355 62.9151 87.1291L78.3751 86.6231C78.4499 86.6213 78.5227 86.6482 78.5784 86.6982C78.6342 86.7481 78.6687 86.8175 78.6751 86.8921C78.6769 86.967 78.65 87.0397 78.6001 87.0955C78.5501 87.1512 78.4807 87.1858 78.4061 87.1921L62.9291 87.6981C62.8562 87.6987 62.786 87.671 62.7332 87.6208C62.6804 87.5706 62.6492 87.5019 62.6461 87.4291Z" fill="#EAEAFF"/>
<path d="M77.7811 89.5793C77.7541 89.5736 77.7287 89.5621 77.7065 89.5456C77.6843 89.5292 77.6659 89.5082 77.6525 89.484C77.6392 89.4598 77.6311 89.4331 77.629 89.4055C77.6269 89.378 77.6307 89.3503 77.6401 89.3243L81.4591 75.6043C81.4658 75.5779 81.4778 75.5531 81.4943 75.5315C81.5109 75.5099 81.5317 75.4919 81.5555 75.4786C81.5793 75.4653 81.6055 75.457 81.6327 75.4542C81.6598 75.4514 81.6872 75.4542 81.7131 75.4623C81.7402 75.4681 81.7656 75.4796 81.7878 75.4961C81.81 75.5125 81.8284 75.5335 81.8418 75.5577C81.8551 75.5819 81.8632 75.6086 81.8653 75.6362C81.8674 75.6637 81.8636 75.6914 81.8541 75.7173L78.0361 89.4383C78.026 89.4835 78.0005 89.5237 77.964 89.5521C77.9276 89.5806 77.8824 89.5955 77.8361 89.5943C77.8166 89.5958 77.7972 89.5905 77.7811 89.5793Z" fill="#1F1F39"/>
<path d="M133.696 93.7522L128.038 75.3642C128.023 75.3097 128.03 75.2518 128.056 75.2019C128.083 75.1521 128.127 75.114 128.18 75.0952C128.234 75.081 128.292 75.0877 128.342 75.114C128.391 75.1403 128.429 75.1843 128.448 75.2372L134.106 93.6252C134.12 93.6796 134.114 93.7374 134.088 93.7873C134.062 93.8371 134.018 93.8753 133.965 93.8942C133.943 93.9045 133.918 93.9093 133.894 93.9082C133.848 93.9075 133.804 93.8918 133.769 93.8636C133.733 93.8354 133.707 93.7963 133.696 93.7522Z" fill="#1F1F39"/>
<path d="M32.174 4.70898H5C2.23858 4.70898 0 6.94756 0 9.70898V43.808C0 46.5694 2.23858 48.808 5 48.808H32.174C34.9354 48.808 37.174 46.5694 37.174 43.808V9.70898C37.174 6.94756 34.9354 4.70898 32.174 4.70898Z" fill="white"/>
<path d="M28.8671 35.418H8.30713V37.662H28.8671V35.418Z" fill="#63926C"/>
<path d="M25.299 40.2129H11.876V42.4569H25.299V40.2129Z" fill="#8FAC94"/>
<path d="M18.5871 30.2124C23.7587 30.2124 27.9511 26.02 27.9511 20.8484C27.9511 15.6768 23.7587 11.4844 18.5871 11.4844C13.4156 11.4844 9.22314 15.6768 9.22314 20.8484C9.22314 26.02 13.4156 30.2124 18.5871 30.2124Z" fill="#C2E3DF"/>
<path d="M17.514 21.7169L21.714 17.5469L22.925 18.8079L17.514 24.1469L14.249 20.8299L15.402 19.6589L17.514 21.7169Z" fill="#63926C"/>
</svg>
