<svg width="16" height="16" viewBox="0 0 16 16" fill="none" xmlns="http://www.w3.org/2000/svg">
    <path fill-rule="evenodd" clip-rule="evenodd" d="M8 16C12.4183 16 16 12.4183 16 8C16 3.58172 12.4183 0 8 0C3.58172 0 0 3.58172 0 8C0 12.4183 3.58172 16 8 16ZM6.21 4.79C6.02 4.61 5.77 4.5 5.5 4.5C5.23 4.5 4.98 4.61 4.79 4.79C4.61 4.98 4.5 5.23 4.5 5.5C4.5 5.77 4.61 6.02 4.79 6.21L6.59 8L4.79 9.79C4.61 9.98 4.5 10.23 4.5 10.5C4.5 10.77 4.61 11.02 4.79 11.21C4.98 11.39 5.23 11.5 5.5 11.5C5.77 11.5 6.02 11.39 6.21 11.21L8 9.41L9.79 11.21C9.98 11.39 10.23 11.5 10.5 11.5C10.77 11.5 11.02 11.39 11.21 11.21C11.39 11.02 11.5 10.77 11.5 10.5C11.5 10.23 11.39 9.98 11.21 9.79L9.41 8L11.21 6.21C11.39 6.02 11.5 5.77 11.5 5.5C11.5 5.23 11.39 4.98 11.21 4.79C11.02 4.61 10.77 4.5 10.5 4.5C10.23 4.5 9.98 4.61 9.79 4.79L8 6.59L6.21 4.79Z" fill="#B8B8D2"/>
</svg>
