<svg width="14" height="14" viewBox="0 0 14 14" fill="none" xmlns="http://www.w3.org/2000/svg">
<path d="M1.99956 0.586538L6.99956 5.58654L11.9996 0.586538C12.0918 0.491028 12.2022 0.414846 12.3242 0.362437C12.4462 0.310028 12.5774 0.282442 12.7102 0.281288C12.8429 0.280134 12.9746 0.305436 13.0975 0.355717C13.2204 0.405997 13.3321 0.480251 13.426 0.574143C13.5198 0.668036 13.5941 0.779688 13.6444 0.902584C13.6947 1.02548 13.72 1.15716 13.7188 1.28994C13.7177 1.42272 13.6901 1.55394 13.6377 1.67594C13.5853 1.79795 13.5091 1.90829 13.4136 2.00054L8.41356 7.00054L13.4136 12.0005C13.5091 12.0928 13.5853 12.2031 13.6377 12.3251C13.6901 12.4471 13.7177 12.5784 13.7188 12.7111C13.72 12.8439 13.6947 12.9756 13.6444 13.0985C13.5941 13.2214 13.5198 13.333 13.426 13.4269C13.3321 13.5208 13.2204 13.5951 13.0975 13.6454C12.9746 13.6956 12.8429 13.7209 12.7102 13.7198C12.5774 13.7186 12.4462 13.691 12.3242 13.6386C12.2022 13.5862 12.0918 13.51 11.9996 13.4145L6.99956 8.41454L1.99956 13.4145C1.90731 13.51 1.79697 13.5862 1.67497 13.6386C1.55296 13.691 1.42174 13.7186 1.28896 13.7198C1.15618 13.7209 1.0245 13.6956 0.901608 13.6454C0.778711 13.5951 0.667059 13.5208 0.573167 13.4269C0.479274 13.333 0.405021 13.2214 0.35474 13.0985C0.304459 12.9756 0.279157 12.8439 0.280311 12.7111C0.281465 12.5784 0.309051 12.4471 0.36146 12.3251C0.413869 12.2031 0.490051 12.0928 0.585562 12.0005L5.58556 7.00054L0.585562 2.00054C0.403404 1.81194 0.302609 1.55933 0.304888 1.29714C0.307166 1.03494 0.412335 0.784128 0.597743 0.59872C0.783151 0.413312 1.03396 0.308143 1.29616 0.305864C1.55836 0.303586 1.81096 0.40438 1.99956 0.586538Z" fill="white"/>
</svg>
