<svg width="14" height="21" viewBox="0 0 14 21" fill="none" xmlns="http://www.w3.org/2000/svg">
<path d="M12.6 20.3949C12.2287 20.3949 11.8726 20.2474 11.6101 19.9849C11.3475 19.7223 11.2 19.3662 11.2 18.9949V2.19492C11.2 1.82362 11.3475 1.46752 11.6101 1.20497C11.8726 0.942421 12.2287 0.794922 12.6 0.794922C12.9713 0.794922 13.3274 0.942421 13.5899 1.20497C13.8525 1.46752 14 1.82362 14 2.19492V18.9949C14 19.3662 13.8525 19.7223 13.5899 19.9849C13.3274 20.2474 12.9713 20.3949 12.6 20.3949ZM1.4 20.3949C1.21615 20.3949 1.0341 20.3587 0.864243 20.2884C0.694387 20.218 0.540053 20.1149 0.410051 19.9849C0.1475 19.7223 0 19.3662 0 18.9949L0 2.19492C0 1.82362 0.1475 1.46752 0.410051 1.20497C0.672601 0.942421 1.0287 0.794922 1.4 0.794922C1.7713 0.794922 2.1274 0.942421 2.38995 1.20497C2.6525 1.46752 2.8 1.82362 2.8 2.19492V18.9949C2.8 19.3662 2.6525 19.7223 2.38995 19.9849C2.1274 20.2474 1.7713 20.3949 1.4 20.3949Z" fill="white"/>
</svg>
