<svg width="20" height="24" viewBox="0 0 20 24" fill="none" xmlns="http://www.w3.org/2000/svg">
<path d="M18.4617 9.11331C18.9294 9.40589 19.3178 9.82668 19.5878 10.3334C19.8578 10.8401 20 11.4149 20 12C20 12.5851 19.8578 13.1599 19.5878 13.6666C19.3178 14.1733 18.9294 14.5941 18.4617 14.8867L4.61542 23.5534C4.14767 23.846 3.61707 24 3.07696 24C2.53685 24 2.00626 23.846 1.53851 23.5534C1.07075 23.2609 0.682325 22.8401 0.412261 22.3334C0.142197 21.8267 1.35199e-05 21.2518 -2.00826e-07 20.6667V3.33327C1.35199e-05 2.74815 0.142197 2.17335 0.412261 1.66662C0.682325 1.1599 1.07075 0.739117 1.53851 0.446564C2.00626 0.154011 2.53685 -3.71613e-06 3.07696 0C3.61707 3.71626e-06 4.14767 0.154026 4.61542 0.446585L18.4617 9.11331Z" fill="white"/>
</svg>
