<svg width="13" height="15" viewBox="0 0 13 15" fill="none" xmlns="http://www.w3.org/2000/svg">
<path d="M12.0001 5.81365C12.3041 5.9892 12.5566 6.24167 12.7321 6.5457C12.9076 6.84972 13 7.1946 13 7.54565C13 7.89671 12.9076 8.24158 12.7321 8.54561C12.5566 8.84964 12.3041 9.10211 12.0001 9.27765L3.00009 14.4777C2.69605 14.6532 2.35117 14.7456 2.0001 14.7456C1.64903 14.7456 1.30415 14.6532 1.00011 14.4777C0.696073 14.3021 0.443596 14.0497 0.268056 13.7456C0.0925159 13.4416 9.63211e-05 13.0967 8.7738e-05 12.7457V2.34565C9.63211e-05 1.99458 0.0925159 1.6497 0.268056 1.34567C0.443596 1.04164 0.696073 0.78917 1.00011 0.61364C1.30415 0.438109 1.64903 0.345701 2.0001 0.345703C2.35117 0.345705 2.69605 0.438118 3.00009 0.613652L12.0001 5.81365Z" fill="white"/>
</svg>
